/* XPM */
static const char *character[] = {
/* columns rows colors chars-per-pixel */
"64 64 216 2 ",
"   c #0A0C0D",
".  c #140E0E",
"X  c #1C0F10",
"o  c #131413",
"O  c #1A1515",
"+  c #1D1C1B",
"@  c #191917",
"#  c #111611",
"$  c #2D1214",
"%  c #211D1C",
"&  c #251A16",
"*  c #351919",
"=  c #361114",
"-  c #2A0E10",
";  c #0C2717",
":  c #0A341B",
">  c #162E1B",
",  c #25221C",
"<  c #2B221F",
"1  c #272117",
"2  c #372912",
"3  c #2A3A19",
"4  c #252322",
"5  c #2E2623",
"6  c #2D2924",
"7  c #2D2B2A",
"8  c #212329",
"9  c #352C26",
"0  c #342E29",
"q  c #322623",
"w  c #33312B",
"e  c #3C342B",
"r  c #3A332A",
"t  c #353331",
"y  c #393634",
"u  c #3D3A39",
"i  c #3D3935",
"p  c #2F3129",
"a  c #491216",
"s  c #551318",
"d  c #67161B",
"f  c #79171E",
"g  c #4B3614",
"h  c #523C12",
"j  c #583F13",
"k  c #42362C",
"l  c #453A2E",
"z  c #443B31",
"x  c #463E37",
"c  c #743235",
"v  c #095928",
"b  c #135626",
"n  c #1A742F",
"m  c #046E30",
"M  c #0A7231",
"N  c #047031",
"B  c #0E6E2F",
"V  c #2E5E25",
"C  c #5C4314",
"Z  c #4F4215",
"A  c #664A14",
"S  c #664914",
"D  c #705116",
"F  c #4D4137",
"G  c #44413E",
"H  c #4C4338",
"J  c #4B4739",
"K  c #564636",
"L  c #584736",
"P  c #594937",
"I  c #534A3C",
"U  c #5C4C3A",
"Y  c #5D503E",
"T  c #63523D",
"R  c #557427",
"E  c #454442",
"W  c #494542",
"Q  c #4D4A47",
"!  c #524D4A",
"~  c #574E40",
"^  c #5C5444",
"/  c #55514D",
"(  c #535041",
")  c #5A5653",
"_  c #5C5955",
"`  c #5E5A59",
"'  c #615544",
"]  c #6C5943",
"[  c #695946",
"{  c #715C43",
"}  c #625D59",
"|  c #744F4C",
" . c #6F614D",
".. c #74624A",
"X. c #7A664A",
"o. c #6E6251",
"O. c #65625C",
"+. c #69645E",
"@. c #736653",
"#. c #766853",
"$. c #7C6C55",
"%. c #7D725A",
"&. c #6C6762",
"*. c #716C66",
"=. c #756D67",
"-. c #78736C",
";. c #7E7871",
":. c #7D7671",
">. c #8C1921",
",. c #971A23",
"<. c #B91D28",
"1. c #A91C26",
"2. c #9C232A",
"3. c #C41E29",
"4. c #CB1E2B",
"5. c #D61F2B",
"6. c #D7202D",
"7. c #8D651A",
"8. c #A9781D",
"9. c #B17E1D",
"0. c #987F21",
"q. c #D23840",
"w. c #846B4C",
"e. c #8B7251",
"r. c #82735C",
"t. c #88765B",
"y. c #957954",
"u. c #997D57",
"i. c #9A7E59",
"p. c #947955",
"a. c #8A704F",
"s. c #8E7D62",
"d. c #917F63",
"f. c #827C75",
"g. c #867F79",
"h. c #B05658",
"j. c #D84148",
"k. c #5C872D",
"l. c #6D8B2B",
"z. c #718E2C",
"x. c #BD861E",
"c. c #B6821D",
"v. c #BD9B26",
"b. c #A39026",
"n. c #C1881E",
"m. c #C79924",
"M. c #D2A226",
"N. c #E4A122",
"B. c #9E825C",
"V. c #A1855E",
"C. c #96866C",
"Z. c #988668",
"A. c #89827B",
"S. c #9A8C72",
"D. c #9F9074",
"F. c #8F8166",
"G. c #A18662",
"H. c #A58A63",
"J. c #A98D67",
"K. c #A38D6C",
"L. c #AA8F69",
"P. c #AC916A",
"I. c #A5906F",
"U. c #B0966F",
"Y. c #A19275",
"T. c #AB9877",
"R. c #B19770",
"E. c #B59B74",
"W. c #B89D76",
"Q. c #B59E79",
"!. c #B99F78",
"~. c #BDA47D",
"^. c #ABA07E",
"/. c #C0A77F",
"(. c #8F8881",
"). c #938B84",
"_. c #968F88",
"`. c #9A938B",
"'. c #979089",
"]. c #A5958D",
"[. c #A49C94",
"{. c #A89F97",
"}. c #BCA782",
"|. c #BBA885",
" X c #ACA39A",
".X c #B0A797",
"XX c #B9B0A6",
"oX c #D78D89",
"OX c #C0A780",
"+X c #C4AB84",
"@X c #C4AF88",
"#X c #CAB38B",
"$X c #CEB68D",
"%X c #CBB993",
"&X c #CBB790",
"*X c #D3BC93",
"=X c #C9BEB3",
"-X c #C6B6AC",
";X c #D6C39A",
":X c #DBC69C",
">X c #DDC99E",
",X c #DDC99F",
"<X c #D5C096",
"1X c #DECBA0",
"2X c #DECBA1",
"3X c #D3CABE",
"4X c #CCC3B6",
"5X c #E0CDA2",
"6X c #E2CEA3",
"7X c #E5D2A6",
"8X c #E4D0A5",
"9X c #E9D6A9",
"0X c #EBD8AB",
"qX c #DDD3C5",
"wX c None",
"eX c black",
/* pixels */
"wXwXwXwXwXwXwXwX< < < < < < < < < < < < < < < < < < < < < < < < < < < < < < < < < < < < < < < < < < < < < < < < wXwXwXwXwXwXwXwX",
"wXwXwXwXwXwXwXwX9 9 9 9 9 9 9 9 9 9 9 9 9 9 9 9 9 9 9 9 9 9 9 9 9 9 9 9 9 9 9 9 9 9 9 9 9 9 9 9 9 9 9 9 9 9 9 9 wXwXwXwXwXwXwXwX",
"wXwXwXwXwXwXwXwXx F F F F F F F F F F F F F F F F F F F F F F F F F F F F F F F F F F F F F F F F F F F F F F x wXwXwXwXwXwXwXwX",
"wXwXwXwXwXwXwXI [ o.@.@.@.@.@.@.@.@.@.@.@.@.@.@.@.@.@.@.@.@.@.@.@.@.@.@.@.@.@.@.@.@.@.@.@.@.@.@.@.@.@.@.@.@.o.[ I wXwXwXwXwXwXwX",
"wXwXwXwXwX5 z ' r.C.D.Y.Y.Y.Y.Y.Y.Y.Y.Y.Y.Y.Y.Y.Y.Y.Y.Y.Y.Y.Y.Y.Y.Y.Y.Y.Y.Y.Y.Y.Y.Y.Y.Y.Y.Y.Y.Y.Y.Y.Y.Y.Y.D.C.r.' z 5 wXwXwXwXwX",
"wXwXwXwX5 9 F @.C.|.%X%X%X%X%X%X%X%X%X%X%X%X%X%X%X%X%X%X%X%X%X%X%X%X%X%X%X%X%X%X%X%X%X%X%X%X%X%X%X%X%X%X%X%X|.C.@.F 9 5 wXwXwXwX",
"wXwXwXwXz F ' r.T.%X6X7X7X6X6X6X1X1X>X:X;X;X;X;X;X:X1X6X6X6X6X6X1X>X>X>X>X>X>X>X>X>X>X>X>X>X1X1X6X6X6X7X7X6X%XT.r.' F z wXwXwXwX",
"wXwXwXI ' @.r.S.|.:X9X0X0X9X9X7X6X>X*X}.S.C.S.S.S.T.%X8X9X9X7X7X6X>X:X:X:X:X:X:X:X:X:X:X:X:X>X6X7X9X9X0X0X9X:X|.S.r.@.' I wXwXwX",
"< 9 x [ r.C.T.|.%X1X7X9X9X9X7X5X:X*X}.%.F e i e e ^ Y.;X6X6X1X:X*X&X$X$X$X$X*X*X*X*X*X*X*X*X*X:X6X7X9X9X9X7X1X%X|.T.C.r.[ x 9 < ",
"< 9 F o.C.|.%X:X1X6X8X7X7X6X1X;X*X#XT.' % - = $ O 6 o.Y.|.^.T.Y.S.S.Z.Z.Z.R.+X#X#X@X@X@X@X#X$X*X:X1X6X7X7X8X6X1X:X%X|.C.o.F 9 < ",
"< 9 F @.D.%X6X9X7X8X6X6X6X1X:X*X$X@XY.^ & a f d $ @ w J ( ( I J H F F z I $.T.+X+X+X+X+X+X+X@X$X*X:X1X6X6X6X8X7X9X6X%XD.@.F 9 < ",
"< 9 F @.Y.%X7X0X9X7X6X1X>X;X*X$X#X+XY.^ & s ,.>.s $ $ * * * * * * * $ & % H t.R.~.OXOXOXOX+X@X#X$X*X;X>X1X6X7X9X0X7X%XY.@.F 9 < ",
"< 9 F @.Y.%X7X0X9X7X6X>X;X*X$X#X@X+XY.^ & = d f f f f f f f f f f f d = O , H #.I.~.+X+X+X+X+X@X#X$X*X;X:X6X7X9X0X7X%XY.@.F 9 < ",
"< 9 F @.Y.%X6X9X9X6X1X;X*X#X@X+X+X+XY.[ , . X a >.<.<.<.<.3.3.3.3.3.1.d $ . @ x d.+X+X+X+X+X+X+X@X@X#X*X;X>X6X9X9X6X%XY.@.F 9 < ",
"< 9 F @.Y.%X6X9X7X1X:X*X$X@X+X+XOX+XQ.s.' w o $ d >.>.,.<.6.6.6.6.6.4.,.d = X e s.@X@X@X@X+X+X+X+X+X@X$X*X:X1X7X9X6X%XY.@.F 9 < ",
"< 9 F @.Y.%X6X7X6X:X*X$X#X+X+XOX/.+X+X}.T.o.4 O $ $ $ a f <.6.6.6.6.6.3.1.d $ e F.#X#X@X+XOX}.OX+X+X@X#X$X*X:X6X7X6X%XY.@.F 9 < ",
"< 9 F @.Y.%X1X6X:X*X$X#X@X+X+XOXOX+X@X&X&XD.^ 0 @     . a >.1.3.5.5.4.<.,.d $ 9 @.S.Y.C.F.F.K.Q./.+X+X@X#X$X*X:X6X1X%XY.@.F 9 < ",
"< 9 F @.Y.%X1X>X*X$X@X@X+X+X+X+X+X+X@X$X*X&XT.#.w       - a f <.5.5.3.>.s $ X @ e H H F z F [ Z.~.+X+X+X@X@X#X*X>X1X%XY.@.F 9 < ",
"< 9 F @.Y.%X>X:X*X#X+X+X@X@X@X@X+X+X@X$X*X:X;XS.z @ 4 w t z c h.j.q.<.c q 4 4 4 6 6 6 6 + @ F F.~.+X+X+X+X+X@X*X:X>X%XY.@.F 9 < ",
"< 9 F @.Y.%X>X:X*X@X+X@X#X$X$X#X@X@X@X#X&X*X<XS.z 6 ) g.(.).].oXoXh.h.| ! Q Q ! Q Q ! W w % z d.~.+X+X+X+X+X@X*X:X>X%XY.@.F 9 < ",
"< 9 F @.Y.%X>X:X*X@X@X#X*X*X*X*X#X@X@X@X#X$X$XF.e y A.=X3X=X=X=X-XS.=.+.+.+.+.+.+.+.&.} x 4 e r.E.}.+X+X+X+X@X*X:X>X%XY.@.F 9 < ",
"< 9 F @.Y.%X>X:X*X#X@X$X*X:X:X*X$X@X+X+X@X@X@Xt.e u `.3X=X`.A.A.-._ E G E W W W W W Q G 7 O , I $.Y.}.+X+X+X#X*X:X>X%XY.@.F 9 < ",
"< 9 F @.Y.%X>X:X*X@X@X$X*X:X:X*X$X@X+X+X+X+X+Xt.e u ).=X).W 6 7 7 4 + + % % + + + + % + @ o o @ z t.~.+X+X+X#X*X:X>X%XY.@.F 9 < ",
"< 9 F @.Y.%X>X:X*X@X@X#X*X*X*X*X$X@X+X+X+X+X+Xt.e t f.[.&.4 @ y Q ! ! ! Q W x u u u u u x u 0 @ 5 #.~.+X+X+X#X*X:X>X%XY.@.F 9 < ",
"< 9 F @.Y.%X>X:X*X@X@X@X#X$X$X$X#X@X@X+X+X+X+Xt.e 7 O.;.! 4 u A. XXX.X.X X].(.g.g.g.g.A.A.g.} 7 5 @.~.+X+X+X#X*X:X>X%XY.@.F 9 < ",
"< 9 F @.Y.%X>X:X*X@X+X+X@X@X@X@X@X+X+X+X+X+X+Xt.e 4 ! O.G 4 ) XXqX3X-X4X3XXX[.`.[. X].'.[.[.;.y q #.~.+X+X+X#X*X:X>X%XY.@.F 9 < ",
"< 9 F @.Y.%X>X:X*X@X+X+X+X+X+X+X~.~.~.~.~.~.~.t.e 4 ! O.G 4 _ -X3X`.:.`.XX`.&.*.`.{.;.} ;.`.f.u 9 #.}.@X+X+X#X*X:X>X%XY.@.F 9 < ",
"< 9 F @.Y.%X1X>X*X@X+X+X+X+X/.~.!.E.E.R.R.E.E.r.e 4 ! O.G 4 ) XXXXO.y &.`.-.i G g.`._ t ) ).f.u 9 $.@X#X@X+X@X*X>X1X%XY.@.F 9 < ",
"< 9 F @.Y.%X2X>X*X#X+X+X+X+X~.!.R.P.J.H.H.J.L.$.r 4 ! O.G 4 /  X[.Q 6 _ ).*.7 y f.`./ 4 ! (.f.u 9 r.$X*X#X@X#X*X>X2X%XY.@.F 9 < ",
"< 9 F @.Y.%X>X:X*X#X+X+X+X+X~.E.P.H.B.B.B.B.G.X.r 4 ! O.G 4 Q _.).W 6 } ).*.0 y f.`./ 6 ! (.f.u w t.*X*X$X@X@X*X:X>X%XY.@.F 9 < ",
"5 9 F o.S.@X<X<X$X@X+X+X+X+X~.E.J.B.u.y.y.u.B...r 4 ! O.G 4 W ).(.G 6 } ).*.7 t f.`./ 4 ! (.f.u w t.*X*X$X@X@X$X*X*X@XS.o.F 9 5 ",
"5 9 x [ s.Q.@X#X@X@X+X+X@X+X~.R.H.B.y.y.y.y.i...r 4 ! O.G 4 W ).(.E 6 } ).*.7 y f.`./ 6 ! (.f.u 9 r.$X*X#X@X@X@X#X@XQ.s.[ x 9 5 ",
"5 9 z ' r.K.E.~./.+X+X@X@X+X~.R.H.B.y.y.y.y.B...r 4 ! +.G 4 W ).`.} W -.`.f.Q / (.[.&.W &.`.f.u 9 $.@X$X#X@X+X/.~.E.K.r.' z 9 5 ",
"5 9 l U X.p.H.R.~.~.+X@X@X+X~.E.J.B.u.y.y.u.B.X.r 4 / +.E 4 W ). X).A.`. X[.A.A.[. X_.A.`.[.f.u 9 #.}.@X@X+X~.~.R.H.p.X.U l 9 5 ",
"5 9 k K { e.B.P.E.~.+X@X@X+X~.E.P.H.B.B.B.i.p.[ q 4 W ) u % u :.`.`._.`.`.`.'.'.`.`.`.'.`.`.*.t 6 #.~.+X@X+X~.E.P.B.e.{ K k 9 5 ",
"q 9 k K { a.B.J.E.~.+X@X@X+X/.!.R.P.J.H.G.e.' k % O 7 y 6 O 4 W ) ` _ ) ) ) _ _ ) ) ) ` ` ) G 4 5 @.~.+X@X+X~.E.L.B.a.{ K k 9 q ",
"q 9 k K { a.B.J.E.~.+X@X@X+X+X~.~.E.R.R.K...9 @ o o @ @ @ o @ , q q q q q q q q 5 q q q 5 4 + @ r $.~.+X@X+X~.E.P.B.a.{ K k 9 q ",
"5 9 k K { e.B.P.E.~.+X@X+X+X+X+X~.~.~.~.R..., # ; : : : : : 3 Z S A A A A A A A A A A C 2 O @ e [ Z.~.+X+X+X~.E.P.B.e.{ K k 9 5 ",
"5 9 k K { e.B.P.E.~.+X+X/.~.~.~.OX+X+X+XE..., ; b v v v v b R 0.n.n.x.x.x.x.x.x.x.x.n.9.D 2 w @.K.~.+X+XOX~.!.R.J.B.e.{ K k 9 5 ",
"5 9 k K { e.B.P.E.~.OX~.!.E.E.!.~.+X~.T.s.U % ; v M M M m B k.v.N.m.c.9.9.9.9.9.9.9.c.8.D 2 z d.~.+X+X~.~.E.U.P.H.B.e.{ L k 9 5 ",
"5 9 k K { e.B.P.E.~.~.~.R.P.P.R.!.~.T.$.F % o ; v M M M N B k.m.m.7.C h h h h h h h h g 2 & z F.}.+X~.!.R.P.H.G.V.i.e.{ P k 9 5 ",
"5 9 k K { e.B.P.W.~.~.E.P.H.H.P.E.~.K.^ + o # : v M M N N B k.v.x.S O o @ % % + % % % + O O z d.}.+X~.E.P.H.B.B.B.u.e.{ P k 9 5 ",
"5 9 k K { e.B.P.W.~.~.E.P.H.H.P.E.~.K.U @ ; : v m m N N N M k.v.x.C O 8 u E E E E E E x 7 + z d.OX+X~.E.P.H.B.B.B.u.e.{ P k 9 5 ",
"5 9 k K { e.B.P.E.~.~.~.R.P.P.R.!.~.K.~ + > b n n n n n n n l.m.x.C , u O.-.=.*.*.=.-.&.E 4 z d.OX+XOX~.R.P.H.G.V.i.e.{ P k 9 5 ",
"5 9 k K { e.B.P.E.~.OX~.!.E.E.!.~./.K.~ , 3 R z.z.l.l.l.l.z.b.M.n.C , E *.g.f.f.f.f.g.-.Q 6 z d.OX+X+X~.~.E.U.P.H.B.e.{ L k 9 5 ",
"5 9 k K { e.B.P.E.~.+X+XOX~.~.~.+X+XK.I < C b.m.m.v.v.v.v.v.M.N.c.j , x &.:.:.:.:.:.;.*.Q 5 z d.}.+X+X+XOX~.!.R.J.B.e.{ K k 9 5 ",
"5 9 k K { e.B.P.E.~.+X@X+X+X+X+X/.~.Z.I 1 h 7.8.8.8.8.8.8.8.8.8.7.g + t ! ) ) ) ) ) ) / y % k s.~.~.~.OX+X+X~.E.P.B.e.{ K k 9 5 ",
"5 9 k K { e.B.P.E.~.+X@X@X+X+X~.~.E.F.K & & g g g g g g g g g g 2 & o @ 6 7 6 7 7 7 7 6 + @ z t.E.E.E.~.~.+X~.W.P.B.e.{ K k 9 5 ",
"5 9 k K { e.B.P.E.~.+X@X@X+X/.~.R.P.p.Y 9 < < 5 q q q 9 9 q q 9 9 q 5 5 , , < < < < , , 5 9 Y d.P.P.P.R.~.OX~.W.P.B.e.{ K k 9 5 ",
"5 9 k K { e.B.P.E.~.+X@X@X+X~.E.P.G.y.X.T T ' [ { @.#.#.#.#.#.#.#.$.@...] T U U U U T ]  .#.t.K.L.H.H.P.E.~.~.W.P.B.e.{ K k 9 5 ",
"5 9 k K { e.B.P.E.~.+X@X@X+X~.E.J.B.u.y.p.p.i.G.P.Q.~.}.~.~.~.~.}.~.Q.P.H.B.i.u.u.i.B.K.R.Q.~.E.P.H.H.P.E.~.~.W.P.B.e.{ K k 9 5 ",
"5 9 k L { e.V.P.W./.+X@X@X+X~.E.J.B.u.y.y.u.B.J.E.~.+X@X@X@X@X@X@X+XOX~.R.P.L.J.J.L.P.E.~.OX/.~.R.P.P.R.~.OX~.W.P.V.e.{ L k 9 5 ",
"5 9 k L { e.V.P.W./.@X@X@X@X~.E.J.B.u.y.y.u.B.J.E.~.+X@X@X@X@X@X@X+X+X~.~.E.E.E.E.E.E.~.~.+X+X~.~.E.E.~.~.+X~.W.P.V.e.{ L k 9 5 ",
"5 9 k K { e.B.P.E.~.+X@X@X+X~.R.J.B.u.y.y.u.B.J.R.~.+X+X+X+X+X+X+X+X+X+X~.~.~.~.~.~.~.~.+X+X+X+X~.~.~.OX+X+X~.E.P.B.e.{ K k 9 5 ",
"5 9 k K ] w.p.G.P.E.~.OXOX~.!.U.H.B.u.y.y.u.B.H.U.!.~.~.~.~.~.~.~.~.~.~.~.~.~.~.~.~.~.~.~.~.~.~.~.~.~.~.~.~.E.P.G.p.w.] K k 9 5 ",
"5 9 k K U ] X.e.Z.P.E.W.W.E.R.P.H.B.i.u.u.i.B.H.P.R.E.E.E.E.E.E.E.E.E.E.E.W.W.W.W.W.W.E.E.E.E.E.E.W.W.W.W.E.P.Z.e.X.] U K k 9 5 ",
"wXwXwXl F K T ..e.G.P.P.P.P.J.H.V.B.B.i.i.B.B.V.H.J.P.P.P.P.P.P.P.P.P.P.P.P.P.P.P.P.P.P.P.P.P.P.P.P.P.P.P.P.G.e...T K F l wXwXwX",
"wXwXwXwXe k F T X.p.B.V.V.B.B.B.i.i.u.u.u.u.i.i.B.B.B.B.B.B.B.B.B.B.B.B.B.B.B.B.B.B.B.B.B.B.B.B.B.B.B.V.V.B.p.X.T F k e wXwXwXwX",
"wXwXwXwX6 9 k K ] w.e.e.e.e.e.e.e.e.e.e.e.e.e.e.e.e.e.e.e.e.e.e.e.e.e.e.e.e.e.e.e.e.e.e.e.e.e.e.e.e.e.e.e.e.w.] K k 9 6 wXwXwXwX",
"wXwXwXwXwX6 e F U ] { { { { { { { { { { { { { { { { { { { { { { { { { { { { { { { { { { { { { { { { { { { { ] U F e 6 wXwXwXwXwX",
"wXwXwXwXwXwXwXl K K K L L K K L P P P P P P P P L K K K K K K K K K K K K K K K K K K K K K K K K K K L L K K K l wXwXwXwXwXwXwX",
"wXwXwXwXwXwXwXwXk k k k k k k k k k k k k k k k k k k k k k k k k k k k k k k k k k k k k k k k k k k k k k k k wXwXwXwXwXwXwXwX",
"wXwXwXwXwXwXwXwX9 9 9 9 9 9 9 9 9 9 9 9 9 9 9 9 9 9 9 9 9 9 9 9 9 9 9 9 9 9 9 9 9 9 9 9 9 9 9 9 9 9 9 9 9 9 9 9 wXwXwXwXwXwXwXwX",
"wXwXwXwXwXwXwXwX5 5 5 5 5 5 5 5 5 5 5 5 5 5 5 5 5 5 5 5 5 5 5 5 5 5 5 5 5 5 5 5 5 5 5 5 5 5 5 5 5 5 5 5 5 5 5 5 wXwXwXwXwXwXwXwX"
};
