/* XPM */
static const char *bottle[] = {
/* columns rows colors chars-per-pixel */
"64 64 211 2 ",
"   c #2B221F",
".  c #2F2623",
"X  c #2F2824",
"o  c #362C27",
"O  c #322925",
"+  c #242C34",
"@  c #282E34",
"#  c #232D3C",
"$  c #2C393E",
"%  c #2C333A",
"&  c #3B3D3D",
"*  c #32373A",
"=  c #3E322A",
"-  c #42362C",
";  c #473A2E",
":  c #493F35",
">  c #403E3B",
",  c #453930",
"<  c #4D4137",
"1  c #4B433B",
"2  c #43423E",
"3  c #564636",
"4  c #584736",
"5  c #584837",
"6  c #584B3C",
"7  c #63513E",
"8  c #233441",
"9  c #21365D",
"0  c #223555",
"q  c #343C41",
"w  c #1E3F7D",
"e  c #1F3C75",
"r  c #3F4040",
"t  c #37494B",
"y  c #3D5554",
"u  c #3A565A",
"i  c #324658",
"p  c #1F4D68",
"a  c #304B72",
"s  c #31677A",
"d  c #434443",
"f  c #4B4A45",
"g  c #4B4A47",
"h  c #534D43",
"j  c #59544A",
"k  c #415C5A",
"l  c #485A56",
"z  c #575A51",
"x  c #46514E",
"c  c #615544",
"v  c #695A46",
"b  c #725C43",
"n  c #635D53",
"m  c #685F52",
"M  c #5B6459",
"N  c #44615E",
"B  c #79654B",
"V  c #6C6253",
"C  c #6A675A",
"Z  c #736653",
"A  c #736B5C",
"S  c #796C58",
"D  c #7D725E",
"F  c #6F624F",
"G  c #496964",
"H  c #4A6761",
"J  c #5B766B",
"K  c #557B72",
"L  c #4D7273",
"P  c #746E61",
"I  c #667769",
"U  c #797665",
"Y  c #66776A",
"T  c #405E62",
"R  c #836B4D",
"E  c #836E52",
"W  c #8B7251",
"Q  c #82735D",
"!  c #887356",
"~  c #967B58",
"^  c #8A704F",
"/  c #867A65",
"(  c #8B7C65",
")  c #867A65",
"_  c #5B867B",
"`  c #59857C",
"'  c #678879",
"]  c #9E825C",
"[  c #A1855E",
"{  c #8E816B",
"}  c #94856C",
"|  c #9A8769",
" . c #988C73",
".. c #9E9177",
"X. c #A58A64",
"o. c #A98E67",
"O. c #A38A67",
"+. c #AC916A",
"@. c #A29275",
"#. c #AB9676",
"$. c #A8987A",
"%. c #B59B74",
"&. c #B89E76",
"*. c #B49E7B",
"=. c #B99F78",
"-. c #B19770",
";. c #A99270",
":. c #BDA47D",
">. c #B5A07D",
",. c #C0A77F",
"<. c #1C479E",
"1. c #1C4596",
"2. c #30528D",
"3. c #1B678F",
"4. c #1A4DB6",
"5. c #1950BE",
"6. c #3155A3",
"7. c #2659AC",
"8. c #33719D",
"9. c #1951C0",
"0. c #185BC4",
"q. c #1861C7",
"w. c #176ACA",
"e. c #1773CD",
"r. c #1C78CE",
"t. c #167DD1",
"y. c #2468C5",
"u. c #467184",
"i. c #1880B6",
"p. c #1B85BB",
"a. c #3494B6",
"s. c #398297",
"d. c #5E8D80",
"f. c #578783",
"g. c #579397",
"h. c #65998A",
"j. c #689686",
"k. c #629F95",
"l. c #6FAA97",
"z. c #6AA89A",
"x. c #72AB97",
"c. c #6EA18F",
"v. c #58ACB2",
"b. c #76B6A1",
"n. c #7BBDA6",
"m. c #67B2AD",
"M. c #4C89B3",
"N. c #7AC6B5",
"B. c #1583D4",
"V. c #178BD6",
"C. c #1493DA",
"Z. c #1498DC",
"A. c #1B9BDB",
"S. c #2C92CF",
"D. c #22A2DC",
"F. c #29A7DB",
"G. c #2CA9DB",
"H. c #2EA3D6",
"J. c #33ACDA",
"K. c #38B1DA",
"L. c #41B8DB",
"P. c #4ABEDA",
"I. c #41B6D8",
"U. c #4FB3D0",
"Y. c #589FC7",
"T. c #55C6DA",
"R. c #58C9DA",
"E. c #52C2D6",
"W. c #61CFDA",
"Q. c #6BCAD5",
"!. c #69D5DA",
"~. c #6AD5D9",
"^. c #75DED9",
"/. c #71CBC9",
"(. c #7CE3D9",
"). c #A89C81",
"_. c #BBA682",
"`. c #BBA987",
"'. c #C0A780",
"]. c #C4AB84",
"[. c #C3AF89",
"{. c #CAB28A",
"}. c #C9B48D",
"|. c #CBB993",
" X c #C9B994",
".X c #D3BC93",
"XX c #82CAB0",
"oX c #8BD8BC",
"OX c #81C7AE",
"+X c #DBC69C",
"@X c #DDC99F",
"#X c #D4C198",
"$X c #DECBA1",
"%X c #D9C7A0",
"&X c #E1CEA3",
"*X c #E5D2A6",
"=X c #E9D6A9",
"-X c #EBD8AB",
";X c #8BDCC5",
":X c #93E6C7",
">X c #96ECCB",
",X c #94EBCC",
"<X c #81E6D9",
"1X c #8BEDD9",
"2X c #87E9D8",
"3X c #9FFAD6",
"4X c #96F4D8",
"5X c #9BF7D6",
"6X c #92E8CA",
"7X c None",
"8X c black",
/* pixels */
"7X7X7X7X7X7X7X7X. . . . . . . . . . . . . . . . . . . . . . . . . . . . . . . . . . . . . . . . . . . . . . . . 7X7X7X7X7X7X7X7X",
"7X7X7X7X7X7X7X7Xo o o o o o o o o o o o o o o o o o o o o o o o o o o o o o o o o o o o o o o o o o o o o o o o 7X7X7X7X7X7X7X7X",
"7X7X7X7X7X7X7X7X- - - - - - - - - - - - - - - - - - - - - - - - - - - - - - - - - - - - - - - - - - - - - - - - 7X7X7X7X7X7X7X7X",
"7X7X7X7X7X7X7X; 3 4 4 4 4 4 4 4 5 5 5 5 5 5 4 3 < < : : : : : : : : : : : : : < < 3 4 4 4 4 4 4 4 4 4 4 4 4 4 3 ; 7X7X7X7X7X7X7X",
"7X7X7X7X7XX = < 6 v b b b b b b b b b b b b b c 6 1 1 1 1 1 1 1 1 1 1 1 1 1 1 1 6 j v b b b b b b b b b b b v 6 < = X 7X7X7X7X7X",
"7X7X7X7XX o - 4 b R W W W W W W W W W W W W B b j 1 > > > > > > > > > > > > > 2 h v B W W W ^ W W W W W W W R b 4 - o X 7X7X7X7X",
"7X7X7X7X= - < 7 B ~ ] [ [ ] ] ] ~ ~ ~ ~ ~ ~ ^ b h & @ @ @ @ @ @ @ @ @ @ @ @ @ * f v E ] ] ] ] ] ] ] ] [ [ ] ~ B 7 < - = 7X7X7X7X",
"7X7X7X; < 4 7 B ! X.+.+.+.+.o.X.[ ] ~ ~ W ^ S C M l y y y y y y y y y y y y y l M C D ~ | | X.o.+.+.+.+.+.+.X.! B 7 4 < ; 7X7X7X",
". o - 3 6 b B ! | +.%.&.&.&.%.+.X.] ! E B v V C Y _ _ _ _ _ _ _ _ _ _ _ _ _ _ _ Y I P S Q } O.%.&.&.&.&.&.&.+.| ! B b 6 3 - o . ",
". o - 4 v R ~ X.+.&.:.,.'.:.=.-.o.] ^ F c h z J ' x.b.b.b.b.b.b.b.b.b.b.b.b.b.l.j.Y M j A ( O.*.:.:.:.:.:.:.&.+.X.~ R v 4 - o . ",
". o - 4 b W ] +.%.:.].].].].:.%.o.] E v 1 & x K c.XX:X:X:X:X:X:X:X:X:X:X:X:X:XoXx._ l * j A | :.:.:.:.'.].].:.&.+.] W b 4 - o . ",
". o - 4 b W [ +.&.,.].].].].:.%.o.] B v 6 & x K c.XX:X6X6X1X1X4X4X5X3X3X5X>X:XoXl._ l & j D  .*.:.&.&.:.:.].:.&.+.[ W b 4 - o . ",
". o - 4 b W [ +.&.:.].].].].:.%.o.] E F c h z J ' c.b.n.N./.~.(.2X4X3X>X;XXXn.l.j.Y M j A ( @.%.%.+.+.-.:.'.:.&.+.[ W b 4 - o . ",
". o - 4 b W ] +.&.:.].].].].:.%.o.] W R B b V I Y K f.g.v.U.E.W.^.2X5X:XXXl.j.K J I C S (  .#.%.+.X.X.+.&.:.:.&.+.] W b 4 - o . ",
". o - 4 b W ] +.&.:.].].].].:.&.+.X.~ ~ ! ! Q A M l u s s.a.G.P.W.(.5X;Xb.d.G x z V S ~ O.#.*.%.+.X.X.+.&.:.:.&.+.] W b 4 - o . ",
". o - 4 b W ] +.&.:.].].].].'.:.%.+.o.o.o.o.| S z & 8 p 3.i.Z.K.T.^.4XoXl.K t % 1 c E o.%.:.:.:.-.+.+.%.:._.:.&.+.] W b 4 - o . ",
". o - 4 b W ] +.&.:.].].].].].:.:.&.%.%.%.%.| D z & 8 p 3.i.Z.K.T.^.5XoXl.K t % 1 c E o.%.:.'.:.=.%.%.:.:.].:.&.+.] W b 4 - o . ",
". o - 4 b W ] +.&.:.].].].].].].:.:.:.:.:.:.@./ z & 8 p 3.i.Z.K.T.^.4XoXl.K t % 1 v E o.%.:.].].'.:.:.'.].].:.&.+.] W b 4 - o . ",
". o - 4 b W ] +.&.:.].].'.:.:.:.'.].].].].].#./ n & 8 p 3.i.Z.K.T.^.4XoXl.K t % f v ! +.&.:.].].].].].].'.:.=.%.o.] W b 4 - o . ",
". o - 4 b W ] +.&.:.'.:.=.%.%.=.:.].].].].].#./ n & 8 p 3.i.Z.K.T.^.4XoXl.K t % f V ~ %.:.:.].].].].].:.=.%.-.+.X.] W b 4 - o . ",
". o - 4 b W ] +.&.:.:.:.-.+.+.-.=.'.].].].].#./ n & 8 p 3.i.Z.K.T.^.4XoXl.K t * h Z } :.:.].].].].].'.:.%.+.X.X.[ ~ W b 5 - o . ",
". o - 4 b W ] +.&.:.:.&.+.X.X.+.%.:.].].].].#./ n & 8 p 3.i.Z.K.T.^.4XoXl.K t * j A  .:.].].].].].].:.&.+.X.] ] ] ~ W b 5 - o . ",
". o - 4 b W ] +.&.:.:.&.+.X.X.+.%.:.].].].].#./ n & 8 p 3.i.Z.K.T.^.4XoXl.K t * j D @.].].].].].].].:.&.+.X.[ ] ] ~ W b 5 - o . ",
". o - 4 b W ] +.&.:.:.:.-.+.+.-.=.'.].].].].#./ n & 8 p 3.i.Z.K.T.^.4XoXl.K t * j D @.].].].].].].].:.=.-.+.X.X.[ ~ W b 5 - o . ",
". o - 4 b W ] +.&.:.'.:.=.%.%.=.:.]._._.>.*. .U C x i s 3.p.Z.J.E.!.2X;Xz.` k t M U } *.*.:.:.].].].].:.:.%.-.o.X.] W b 4 - o . ",
". o - 4 b W ] +.&.:.].].'.:.:.:.'.].*.#. .{ ) U Y J L s.a.S.Z.F.K.T.!./.m.g.` K Y U U ( } @.*.'.].].].].'.:.=.-.o.] W b 4 - o . ",
". o - 4 b W ] +.&.:.].].].].].].:.:.#.} D V C Y ' h.z.v.a.S.Z.D.G.K.P.U.v.m.z.c.j.' C V D } #._.].].].].].].:.%.+.] W b 4 - o . ",
". o - 4 b ^ ] o.%.:.].].].].].:.:.%.| S n d l K h.N.oX/.U.H.Z.A.D.F.G.K.U./.N.XXx.' M d n U  .:.].].].].].].:.&.+.] ^ b 4 - o . ",
". o - 4 b ^ ] o.%.:.].].].].:.*.#.O.Q V g * y ` l.;X1X~.T.J.Z.Z.Z.Z.Z.F.P.!.1X:Xn.d.N $ x C } *.:._._.].].].:.%.o.] ^ b 4 - o . ",
". o - 4 b W ] +.&.:.].].]._.%.| ~ S Z C M H K g.m./.^.R.L.F.Z.Z.Z.Z.Z.F.P.!.1X>XXXl._ H J I U }  .#.*._.].].:.&.+.] W b 4 - o . ",
". o - 6 B ~ o.%.:.:.].].].:.@.( Z c M I ' j.k.m.v.E.T.L.J.D.Z.Z.Z.Z.Z.F.P.~.1X5XoXN.l.h.' ' I A / } #._.].].:.:.%.o.~ B 6 - o . ",
". o , c E O.&.:.,.].].].].:.| S j 2 z J h.n.N.m.U.I.J.F.D.A.Z.Z.Z.Z.Z.F.E.~.1X5X:X;XoXOXx.' J z n / .._.{.].].,.:.&.O.E c , o . ",
". o : v ( *.].{.{.].].].].*.( m 2 @ k _ n.:X2X~.P.F.Z.Z.Z.Z.Z.Z.Z.Z.Z.F.P.!.1X3X3X3X3X5XOXh.G q d C } _.{.].].{.{.].*.( v : o . ",
". o < F  .[.#X#X|.].].].].*.( m 2 + k d.n.>X1X!.P.F.Z.Z.Z.Z.Z.Z.Z.Z.Z.F.L.R.^.2X1X4X5X3XXXh.G $ d C  .`.}.[.].}..X.X[. .F < o . ",
"  o < Z @. X@X+X.X{.].].].*.( m 2 + k d.n.>X1X!.P.F.Z.Z.Z.Z.Z.Z.Z.Z.Z.D.J.L.R.!.^.2X4X3XXXh.G $ d C  .`.}.[.{..X+X@X X@.Z < o   ",
"  o < Z @.|.$X@X.X{.].].].*.( V d + k d.n.>X1X!.P.F.Z.Z.Z.Z.Z.Z.Z.Z.Z.A.F.J.K.P.W.^.1X3XXXh.G $ d C } _.{.].{..X@X&X|.@.Z < o   ",
"  o < Z @.|.$X@X.X{.].].].*.{ V d + k d.n.>X1X!.P.F.Z.Z.Z.Z.Z.Z.Z.Z.Z.Z.A.A.D.G.P.!.2X3XXXh.G $ d C { >.].].{..X@X&X|.@.Z < o   ",
"  o < Z @. X@X+X.X{.].].].*.} V f + k d.n.>X1X!.P.F.Z.Z.Z.Z.Z.Z.Z.Z.Z.Z.Z.Z.Z.D.L.W.<X3XXXh.G $ r V ( *.].].{..X+X@X X@.Z < o   ",
"  o < Z @. X@X+X.X{.].].]._.} C f + k d.n.>X1X!.P.F.Z.Z.Z.Z.Z.Z.Z.Z.Z.Z.Z.Z.Z.D.L.W.<X3XXXh.G $ r m / #.].].{..X+X@X X@.Z < o   ",
"  o < Z @. X@X+X.X{.].].{.`. .A f + k d.n.>X1X!.P.F.Z.Z.Z.Z.Z.Z.Z.Z.Z.Z.Z.Z.Z.D.L.W.<X3XXXh.G $ r m / #.].].{..X+X@X X@.Z < o   ",
"  o < Z @. X@X+X.X{.].{..X}...A f + k d.n.>X1X!.P.F.Z.Z.Z.Z.Z.Z.Z.Z.Z.Z.Z.Z.Z.D.L.W.<X3XXXh.G $ r m / #.].].{..X+X@X X@.Z < o   ",
"  o < Z @. X@X+X.X{.].}..X X@.P f + k d.n.>X1X!.P.F.Z.Z.Z.Z.Z.Z.Z.Z.Z.Z.Z.Z.Z.D.L.W.<X3XXXh.G $ r m / #.].].{..X+X@X X@.Z < o   ",
"  o < Z @. X@X+X.X{.].}..X X@.P f + k d.n.>X1X!.P.F.Z.Z.Z.Z.Z.Z.Z.Z.Z.Z.Z.Z.Z.D.L.W.<X3XXXh.G $ r n / #.].].{..X+X@X X@.Z < o   ",
"  o < Z @. X@X+X.X].].{..X}...A f + k d.n.>X1X!.P.F.Z.Z.Z.Z.Z.Z.Z.Z.Z.Z.Z.Z.Z.D.L.W.<X3XXXh.G $ r n / #.].].]..X+X@X X@.Z < o   ",
"  o < Z @. X@X+X.X{.].].{.`. .A f + k d.n.>X1X!.P.F.Z.Z.Z.Z.Z.Z.Z.Z.Z.Z.Z.Z.Z.D.L.W.<X3XXXh.G $ r m / #.].].]..X+X@X X@.Z < o   ",
"  o < Z @. X@X+X.X{.].].]._.} C f + k d.n.>X1X!.P.F.Z.Z.Z.Z.Z.Z.Z.Z.Z.Z.Z.Z.Z.D.L.W.<X3XXXh.G $ r m / #.].].{..X+X@X X@.Z < o   ",
"  o < Z @. X$X@X.X}.].].].>.} C f + u K z./.Q.P.K.D.Z.Z.Z.Z.Z.Z.Z.Z.Z.Z.Z.Z.Z.A.K.P.Q.;Xm.f.T $ r m / *.].].}..X@X$X X@.Z < o   ",
"  o < Z @. X$X&X+X.X}.{.].*.{ V f + i L g.Y.U.I.H.A.Z.Z.Z.Z.Z.Z.Z.Z.Z.Z.Z.Z.Z.A.H.I.U.Y.M.u.u % r m ) *.{.}..X+X&X$X X@.Z < o   ",
"  o < Z @. X&X*X&X+X.X}.{.>.{ V f + i a 8.M.S.S.S.A.Z.Z.Z.Z.Z.Z.Z.Z.Z.Z.Z.Z.Z.A.S.S.S.M.8.2.i # r n ( *.|..X+X$X*X&X X@.Z < o   ",
"  o < Z @. X&X=X*X$X+X.X}._.} V f + 0 a 1.7.y.r.B.C.Z.Z.Z.Z.Z.Z.Z.Z.Z.Z.Z.Z.Z.C.B.r.y.y.6.a 9 # r n ( _..X+X$X*X=X&X X@.Z < o   ",
"  o < Z @. X&X=X=X&X$X+X.X_.} C f + 0 e 1.4.0.w.e.B.V.C.C.C.Z.Z.Z.Z.Z.Z.Z.Z.Z.C.B.e.q.5.<.w 9 # r V { _.+X$X&X=X=X&X X@.Z < o   ",
"  o < Z @.|.*X-X=X*X&X@X#X[. .A f + 0 e 1.4.0.q.w.e.B.B.V.C.Z.Z.Z.Z.Z.Z.Z.Z.Z.C.B.e.q.5.<.w 9 # d V } `.@X$X*X=X-X*X|.@.Z < o   ",
"  o < Z @.|.*X-X=X*X&X$X@X X..A f + 0 e 1.4.9.0.q.w.e.t.B.V.Z.Z.Z.Z.Z.Z.Z.Z.Z.C.B.e.q.5.<.w 9 # d C  .[.$X&X*X=X-X*X|.@.Z < o   ",
"  o < Z .. X&X=X*X*X&X&X&X|.@.P f + 0 e 1.4.9.9.0.0.q.e.t.V.Z.Z.Z.Z.Z.Z.Z.Z.Z.C.B.e.q.5.<.w 9 # d C  . X&X&X*X*X=X&X X..Z < o   ",
"  o < V } _.|.+X$X&X*X*X*X#X$.P g + 0 e 1.4.9.9.9.9.9.q.e.B.C.C.C.C.C.C.C.C.C.V.t.e.0.5.<.w 9 # d A .. X*X*X&X$X+X|._.} V < o   ",
"  o : v Q } $.`.|.$X*X=X=X+X).U g + 0 e 1.4.9.9.9.9.9.q.w.t.B.B.B.B.B.B.B.B.B.t.e.q.0.5.<.w 9 # f P ...X=X*X$X|.`.$.} Q v : o   ",
"7X7X7X6 c Z Q  .`.+X=X-X-X%X).U g + 0 e 1.4.9.9.9.9.9.0.q.w.e.e.e.e.e.e.e.e.e.e.w.0.0.5.<.w 9 # d P ..#X-X=X+X`. .Q Z c 6 7X7X7X",
"7X7X7X7X, < c Q $.|.&X*X*X#X).U g + 0 e 1.4.9.9.9.9.9.9.0.0.q.q.q.q.q.q.q.q.q.q.0.0.9.5.<.w 9 # f P .. X*X&X|.$.Q c < , 7X7X7X7X",
"7X7X7X7X. o < Z } _. X|.|.`. .A g + 0 e 1.4.9.9.9.9.9.9.9.9.9.9.9.9.9.9.9.9.9.9.9.9.9.5.<.w 9 # r C { `.|. X_.} Z < o . 7X7X7X7X",
"7X7X7X7X7X. , c Q } ..@.@.} P z d + 0 e 1.4.9.5.9.9.9.9.9.9.9.9.9.9.9.9.9.9.9.9.9.9.9.5.<.w 9 # & j A { @...} Q c , . 7X7X7X7X7X",
"7X7X7X7X7X7X7X6 v V Z Z Z V n h d & i a 2.6.6.6.6.6.6.6.6.6.6.6.6.6.6.6.6.6.6.6.6.6.6.6.2.a i q d f j m Z Z V v 6 7X7X7X7X7X7X7X",
"7X7X7X7X7X7X7X7X: < < < < < < < < < < < < < < < < < < < < < < < < < < < < < < < < < < < < < < < 1 1 < < < < < : 7X7X7X7X7X7X7X7X",
"7X7X7X7X7X7X7X7Xo o o o o o o o o o o o o o o o o o o o o o o o o o o o o o o o o o o o o o o o o o o o o o o o 7X7X7X7X7X7X7X7X",
"7X7X7X7X7X7X7X7X                                                                                . .             7X7X7X7X7X7X7X7X"
};
