/* XPM */
static const char *sortie[] = {
/* columns rows colors chars-per-pixel */
"64 64 163 2 ",
"   c #191515",
".  c #1D1817",
"X  c #1F1B18",
"o  c #241C19",
"O  c #2C1F1C",
"+  c #331E1E",
"@  c #27201B",
"#  c #2D211C",
"$  c #35241E",
"%  c #38261E",
"&  c #35281F",
"*  c #39281E",
"=  c #3A2420",
"-  c #362A20",
";  c #3C2D22",
":  c #452523",
">  c #492724",
",  c #462A23",
"<  c #4C2925",
"1  c #532D27",
"2  c #562D28",
"3  c #5C2E2A",
"4  c #473426",
"5  c #4A3324",
"6  c #4A3826",
"7  c #543523",
"8  c #5B3527",
"9  c #563824",
"0  c #593925",
"q  c #533129",
"w  c #5E302A",
"e  c #523C2A",
"r  c #5B3E28",
"t  c #623D27",
"y  c #63322C",
"u  c #6B352D",
"i  c #623929",
"p  c #6D3A2E",
"a  c #713A2F",
"s  c #753E31",
"d  c #7A3F30",
"f  c #57422B",
"g  c #5C442D",
"h  c #65422C",
"j  c #6A432A",
"k  c #624A2F",
"l  c #75442C",
"z  c #79442F",
"x  c #7D4C2D",
"c  c #664330",
"v  c #684330",
"b  c #644C30",
"n  c #684E31",
"m  c #764032",
"M  c #7D4432",
"N  c #695032",
"B  c #745535",
"V  c #7A5537",
"C  c #765937",
"Z  c #804E2E",
"A  c #85512E",
"S  c #89522F",
"D  c #844632",
"F  c #864832",
"G  c #894A33",
"H  c #845331",
"J  c #8C5233",
"K  c #855D37",
"L  c #8D5B35",
"P  c #835338",
"I  c #895F38",
"U  c #935334",
"Y  c #9A5635",
"T  c #9B5A35",
"R  c #935639",
"E  c #935B3C",
"W  c #9D5A38",
"Q  c #A25E36",
"!  c #A15D38",
"~  c #83613B",
"^  c #8A653C",
"/  c #90643B",
"(  c #9C623F",
")  c #916B3F",
"_  c #A26035",
"`  c #AB6537",
"'  c #A4643C",
"]  c #AC6438",
"[  c #A36D3E",
"{  c #AC683A",
"}  c #B16639",
"|  c #B66B3A",
" . c #BA6D3B",
".. c #BB723E",
"X. c #C0733E",
"o. c #946E41",
"O. c #9C6A42",
"+. c #967041",
"@. c #997142",
"#. c #A16E44",
"$. c #AD6E43",
"%. c #A17644",
"&. c #AE7446",
"*. c #A37846",
"=. c #AB7B46",
"-. c #AA7D48",
";. c #B57442",
":. c #BB7642",
">. c #BB7943",
",. c #B17F4A",
"<. c #B87E4B",
"1. c #C17B44",
"2. c #B4844B",
"3. c #BA834A",
"4. c #BF8C4F",
"5. c #C78147",
"6. c #CA8347",
"7. c #C4854B",
"8. c #C9864A",
"9. c #C48A4F",
"0. c #CC8B4D",
"q. c #D18F4F",
"w. c #D2904F",
"e. c #C28E50",
"r. c #C88F52",
"t. c #C88F52",
"y. c #C49051",
"u. c #C79252",
"i. c #C59051",
"p. c #C99252",
"a. c #CA9453",
"s. c #CF9453",
"d. c #CB9554",
"f. c #CA9252",
"g. c #D49150",
"h. c #D59250",
"j. c #D49351",
"k. c #D79350",
"l. c #D79551",
"z. c #D09654",
"x. c #D39654",
"c. c #D39754",
"v. c #D29655",
"b. c #D39553",
"n. c #D39A56",
"m. c #D49855",
"M. c #D49B57",
"N. c #D69C57",
"B. c #D59A55",
"V. c #D99D57",
"C. c #DE9C56",
"Z. c #DF9E56",
"A. c #DB9C56",
"S. c #DA9F58",
"D. c #DDA058",
"F. c #DCA059",
"G. c #DFA259",
"H. c #DDA15A",
"J. c #E3A359",
"K. c #E1A45B",
"L. c #E5A85D",
"P. c None",
"I. c black",
/* pixels */
"P.P.P.P.                      . o o o o .                                             . o o o o .                       P.P.P.P.",
"P.P.P.P.o o o o o o o o o o o o o o o o o o o o o o o o o o o o o o o o o o o o o o o o o o o o o o o o o o o o o o o o P.P.P.P.",
"P.P.P.P.; ; ; ; ; ; ; ; ; ; - & # o o # & - ; ; ; ; ; ; ; ; ; ; ; ; ; ; ; ; ; ; ; ; ; & # o o # & - ; ; ; ; ; ; ; ; ; ; P.P.P.P.",
"P.P.P.6 f k k b b b b n n b g 6 ; # # - 6 g k b b b b b b b b b b b b b b b b b n b g 6 ; # # ; 6 g b b n b b b b k k f 6 P.P.P.",
"  o ; f B ^ o.@.@.@.@.@.@.o.~ b 4 & & 4 b ~ o.+.+.o.o.o.o.o.o.o.o.o.o.o.o.o.o.@.@.o.^ n 6 & & 4 b ~ o.@.@.@.@.@.@.o.^ B f ; o   ",
"  o ; k ^ -.4.e.e.4.4.e.e.4.-.~ f ; ; f ~ -.4.u.e.4.4.4.4.4.4.4.4.4.4.4.4.4.4.e.e.4.-.~ f ; ; f ~ -.4.e.e.4.4.e.e.4.-.^ k ; o   ",
"  o ; k o.4.n.M.d.e.e.f.v.s.3.^ g ; ; g ) 4.N.G.V.M.v.v.v.v.v.v.v.v.v.v.v.v.v.v.v.r.,.~ g ; ; g ^ 3.s.v.f.e.e.d.M.n.4.o.k ; o   ",
"  o ; b @.e.M.a.2.*.%.,.7.0.3.^ g ; ; b @.u.G.J.C.l.g.w.w.g.g.g.g.g.g.g.g.g.q.0.7.<.#.V e - ; g / 3.0.7.,.%.*.2.a.M.e.@.b ; o   ",
"  o ; b @.e.d.2.o.C B I [ >.;.L r - ; b @.u.G.C.g.0.6.6.6.6.6.6.6.6.6.6.6.6.1.>.$.( P h , & * g L ;.>.[ I B C o.2.d.e.@.b ; o   ",
"  o ; b @.4.e.*.C e e j L { ' H 0 * ; k o.4.v.g.8.1.........................| ' R D p q = # * r H ' { L j e e C *.e.4.@.b ; o   ",
"  o ; b @.4.e.%.B 6 5 t S _ _ Z 9 * ; g ^ 2.9.7.:.| ] ] ] ] ] ] ] ] ] ] ] ] Q U D a w > $ O % 0 A _ _ S t 5 6 B %.e.4.@.b ; o   ",
"  o ; b +.4.e.=.K h t l U _ Q x 9 % - e V O.&.$.' W Y Y Y Y Y Y Y Y Y Y Y Y U G d p 3 : $ O % 0 Z Q _ U l t h K =.e.4.+.b ; o   ",
"  o ; b o.4.f.3.[ L A U Q ` Q x 9 % & 4 c P E R J G D D D D D D D D D F F D D d a u 3 > $ O % 0 Z Q ` Q U A L [ 3.f.4.o.b ; o   ",
"  o ; b o.4.z.0.>.{ _ ` } } _ x 9 % # = q p m m s a a a a a a a a a a a a a a p p y 3 < $ O % 9 x _ } } ` _ { >.0.z.4.o.b ; o   ",
"  o ; b o.4.v.w.5...| |  .| _ x 9 % O $ : 2 w y w w w w w w w w w w w w w w w w 3 3 2 : $ O % 9 x _ |  .| | ..5.w.v.4.o.b ; o   ",
"  o ; b o.4.v.g.6.X. . . .| _ x 9 % O O + : : : : : : : : : : : : : : : : : : > > > : $ O O % 9 x _ |  . . .X.6.g.v.4.o.b ; o   ",
"  o ; b o.4.v.g.6... . . .| _ Z 0 % o o O + + + + + + + + + + + + + + + + + + + + $ + O o o % 0 Z _ |  . . .X.6.g.v.4.o.b ; o   ",
"  o ; b o.4.v.w.6...|  . .| _ Z 0 % o o o O O # # # # # # # # # # # # # # # # # # # O o o o % 0 Z _ |  . .| ..6.w.v.4.o.b ; o   ",
"  o ; b o.4.v.w.5...| |  .| _ Z 0 % o @ # - ; ; ; ; ; ; ; ; ; ; ; ; ; ; ; ; ; ; ; ; - # @ o % 0 Z _ |  .| | ..6.w.v.4.o.b ; o   ",
"  o ; b o.4.v.w.5...| |  .| _ x 9 % # - 6 g k b b k k b b b b b b b b b b b b b b k g 6 - # % 9 x _ |  .| | ..5.w.v.4.o.b ; o   ",
"  o ; b o.4.v.w.5...| |  .| _ x 9 % & 4 b ~ o.@.+.o.o.o.o.o.+.+.+.+.+.+.+.+.+.@.@.o.~ b 4 & % 9 x _ |  .| | ..5.w.v.4.o.b ; o   ",
"  o ; b o.4.v.w.5...| |  .| _ x 7 % ; f ~ -.4.u.e.e.4.4.4.4.4.4.4.4.4.4.4.4.e.e.u.4.-.~ f ; % 7 x _ |  .| | ..5.w.v.4.o.b ; o   ",
"  o ; b o.9.v.w.5...| |  .| _ x 7 % ; k o.4.N.G.G.V.N.M.M.v.v.z.v.v.v.v.z.v.M.V.S.N.4.o.k ; % 7 x _ |  .| | ..5.w.v.4.o.b ; o   ",
"  o ; b o.9.v.w.5...| |  .| _ x 7 % ; b o.u.G.L.L.K.G.V.m.g.w.q.q.w.w.q.q.w.g.A.J.S.u.+.b ; % 7 x _ |  .| | ..5.w.v.4.o.b ; o   ",
"  o ; b o.4.v.w.5... .|  .| _ x 7 % ; k o.e.G.L.L.G.V.l.q.8.5.5.5.5.5.1.5.5.8.w.A.V.e.+.b ; % 7 x _ |  .| | ..5.w.v.4.o.b ; o   ",
"  o ; b o.4.v.w.5... .|  .| _ x 7 % ; k o.e.V.K.G.V.M.0.5.>.................1.8.g.M.4.o.b ; % 7 x _ |  .| | ..5.w.v.4.o.b ; o   ",
"  o ; b o.4.v.w.5...| |  .| _ x 7 % ; k o.4.N.G.V.M.g.8.1...| | | | | | | | ..6.w.v.4.o.b ; % 7 x _ |  .| | ..5.w.v.4.o.b ; o   ",
"  o ; b o.4.v.w.5...| |  .| _ x 7 % ; k o.4.M.V.l.0.8.1.:. .| | | | | | } | ..6.g.M.e.+.b ; % 7 x _ |  .| | ..6.g.M.e.+.b ; o   ",
"  o ; b o.4.v.w.5...| |  .| _ x 7 % ; k o.4.M.m.q.5.1.:...| | | | | | | | | ..6.g.M.e.+.b ; % 7 x _ |  .| | ..6.g.M.e.+.b ; o   ",
"  o ; b o.4.v.w.5...| |  .| _ x 7 % ; b o.4.v.g.8.>... .| | | | | | | | | | ..5.q.z.4.o.b ; % 7 x _ |  .| | ..5.w.z.4.o.b ; o   ",
"  o ; b o.4.v.w.5...| |  .| _ x 7 % ; b o.4.v.w.6...| | | | | | | | | | | | ..1.8.9.,.^ g ; % 7 x _ |  . . ...1.8.9.,.^ g ; o   ",
"  o ; b o.4.v.w.5...| |  .| _ x 7 % ; b +.e.M.g.6...| | | | | | | | | |  . .| ;.;.&.O.B e - % 7 x _ |  . .| | ;.;.&.O.V e & o   ",
"  o ; b o.4.v.w.5...| |  .| _ x 7 % ; b +.e.M.g.6...| | | | | | | | |  . . .| { ' E P h , & % 9 x _ |  . .| } { ' E P h 5 & o . ",
"  o ; b o.4.v.w.5...| |  .| _ x 7 % ; b o.4.z.q.5...| | | | | | | | |  . .| ] ! U M p q = # % 9 x _ | .. .| ] ! U M p q ; # o X ",
"  o ; b o.4.v.w.5...| |  .| _ x 7 % ; g ^ ,.9.8.1...| | | | | | | | | | } ] Q U D a w > $ O % 9 x _ |  . .| ] Y F a w < = O o X ",
"  o ; b +.e.M.g.6...| |  .| _ x 7 % - e B O.&.;.;.|  . . . . . . . .| ] _ W U F d u 3 : + O % 9 x _ |  . .| ] Y D p 3 > $ O o X ",
"  o ; b +.e.M.g.6...| |  .| _ x 9 % & , h P E ' { |  . . . . . . . .} _ Y G D d a u 3 : $ O % 9 x _ |  . .| ] Y D p 3 > $ O o X ",
"  o ; b o.4.z.w.5...| |  .| _ x 9 % # = q p M U ! ] |  .| | | |  .| ] W G M a p u y 3 < $ O % 9 x _ |  . .| ] Y F a w < = O o X ",
"  o ; g ^ ,.9.8.1...|  . .| _ x 9 % O $ > w a D U Q ] ] ] ] ] ] ] ] Q U D a u y u y w < $ # % 9 x _ |  . .| ] Y F a w < = O o X ",
"  o & e V O.&.;.;.| |  . .| _ x 9 % O + : 3 p d G U Y W W Y Y W W Y U F d p y y u u w < $ # % 9 x _ |  . .| ] Y F a w < = O o X ",
". o & 5 h P E ' { } |  . .| _ x 9 % O $ > 3 u a M D F F F F F F F D D M a p u u u u w < $ # % 9 x _ |  . .| ] W F a w < = O o X ",
"X o # ; q p M U ! ] |  . .| _ x 9 % O $ < 3 y p p a a a a a a a a a a p u u y u u y 3 < $ # % 9 x _ | .. .| ] Y F a w < = O o X ",
"X o O = < w a F Y ] |  . .| _ x 9 % O $ : 2 3 w w w w w w w w w w w w w 3 3 3 w w 3 2 : $ O % 9 x _ |  . .| ] Y F a w < = O o X ",
"X o O $ > 3 p D Y ] |  . .| _ Z 9 % O O $ : > > > : : : : : : : : : : > > > > < < > : $ O O % 9 x _ |  . .| ] Y F a w < = O o X ",
"X o O $ > 3 p D Y ] |  . .| _ Z 0 % o o O + $ + + + + + + + + + + + + + + $ $ $ $ $ + O o o % 0 Z _ |  . .| ] Y F a w < = O o X ",
"X o O = < w a F Y ] |  . .| _ Z 0 % o o o O # # # # # # # # # # # # # # # # # # # # O o o o % 0 Z _ |  . .| ] Y F a w < = O o X ",
"X o O = < w a F Y ] |  ...| _ Z 0 % o @ # - ; ; ; ; ; ; ; ; ; ; ; ; ; ; ; ; ; ; ; ; - # @ o % 0 x _ |  . .| ] Y F a w < = O o X ",
"X o O = < w a G W }  ...X.| _ x 9 % # - 6 g k b b b b b b b b b b b b b b b b b b b g 6 - # % 9 x _ | .... .] W G a w < = O o X ",
"X o O = < w a G W }  .X...| _ x 9 % & 4 b ~ o.@.@.+.+.+.+.+.+.+.+.+.+.+.+.+.+.@.@.+.^ N 6 & % 9 x _ | ..X. .} W G a w < = O o X ",
"X o O = < w a F Y ] |  . .| _ x 7 % ; f ~ -.4.u.e.e.4.4.4.4.4.4.4.4.4.4.4.4.9.e.u.4.-.~ f - % 7 x _ |  . .| ] Y F a w < = O o X ",
"X o O = < w p M J T _ { | } _ x 7 % ; k o.4.N.G.V.M.v.v.v.v.v.v.v.v.v.v.v.v.v.v.v.r.,.~ g ; % 7 x _ } | { _ T J M p w < = O o X ",
"X o O = < w u a l x A T ` } _ x 7 * ; b @.u.G.J.C.l.g.w.w.g.g.g.g.g.g.g.g.g.q.0.7.<.#.V e - % 9 Z _ } ` T A x l a u w < = O o X ",
"X o O = < w y y 8 8 h x T ` _ Z 7 * ; b @.u.G.C.g.0.6.6.6.6.6.6.6.6.6.6.6.6.1.>.$.( P c 4 & % 0 Z _ ` T x h 0 8 y y w < = O o X ",
"X o O = < w y 2 , ; 5 j L _ Q Z 9 * ; b o.4.v.g.8.1.........................| ' R D p q = # % 0 Z _ _ L j 5 ; , 2 y w < = O o X ",
"X o O = < w w 1 : $ ; 0 Z T T x 7 % ; g ^ 2.9.7.:.| ] ] ] ] ] ] ] ] ] ] ] ] Q U D a w > $ O % 9 x T T Z 0 ; $ : 1 w w < = O o X ",
"X o O = < w y 2 > : , 8 z J G j 5 % - e V O.&.$.' W Y Y Y Y Y Y Y Y Y Y Y Y U G d p 3 > $ O % 5 l G G z 8 , : > 2 y w < = O o X ",
"X o O = < w y y 2 1 2 y a M z i , $ & 5 v P E R J G D D D D D D D D D F F D D d a u 3 > $ O $ , i z M a y 2 1 3 y y w < = O o X ",
"X o O = < w y y y w y y u p y 1 = # # ; q p m m s a a a a a a a a a a a a a a p p y 3 < $ O # = 2 y p p y y y y y y w < = O o X ",
"X o O = < 2 w w w w w w y w 2 > $ O O $ > 2 w w y w w w w w w w w w w w w w w w y w 2 , $ O O $ > 2 w y w w w w w w 2 < = O o X ",
"X o O $ : < < < < < < < < < : = $ O O + = : > < < < < < < < < < < < < < < < < < < < > = $ O O $ = : < < < < < < < < < : $ O o X ",
"P.P.P.$ $ = = = = = = = = = $ $ O o o O + $ $ $ = = = = = = = = = = = = = = = = = = $ $ O o o O $ $ = = = = = = = = = $ $ P.P.P.",
"P.P.P.P.O O O O O O O O O O O O o o o o O O O O O O O O O O O O O O O O O O O O O O O O o o o o O O O O O O O O O O O O P.P.P.P.",
"P.P.P.P.o o o o o o o o o o o o o o o o o o o o o o o o o o o o o o o o o o o o o o o o o o o o o o o o o o o o o o o o P.P.P.P.",
"P.P.P.P.X X X X X X o o X X o o o o o o o o X X X X X X X X X X X X X X X X X X X X o o o o o o o o X X X X X X X X X X P.P.P.P."
};
