/* XPM */
static const char *floor[] = {
/* columns rows colors chars-per-pixel */
"64 64 149 2 ",
"   c #2B221F",
".  c #2F2623",
"X  c #302723",
"o  c #362C27",
"O  c #372D28",
"+  c #3D312A",
"@  c #42362C",
"#  c #473A2E",
"$  c #443930",
"%  c #4A3E34",
"&  c #4D4137",
"*  c #4D4238",
"=  c #564736",
"-  c #584736",
";  c #584837",
":  c #554A3D",
">  c #5E4C3A",
",  c #63513E",
"<  c #625545",
"1  c #6B5740",
"2  c #6E5942",
"3  c #655849",
"4  c #695B49",
"5  c #715C43",
"6  c #6F624F",
"7  c #766249",
"8  c #7A654A",
"9  c #6E6150",
"0  c #736653",
"q  c #81694B",
"w  c #896F4E",
"e  c #8A704F",
"r  c #837055",
"t  c #8B7251",
"y  c #81735D",
"u  c #947751",
"i  c #957A54",
"p  c #997D57",
"a  c #947B59",
"s  c #9B7E58",
"d  c #8F7E63",
"f  c #9E825C",
"g  c #A1855E",
"h  c #9E8563",
"j  c #96876D",
"k  c #9A8A6E",
"l  c #9C8D71",
"z  c #9F9074",
"x  c #A18662",
"c  c #A58A64",
"v  c #A98D67",
"b  c #A28C69",
"n  c #AA8F68",
"m  c #AC916A",
"M  c #B0966F",
"N  c #A19175",
"B  c #A9997A",
"V  c #B19770",
"C  c #B59B74",
"Z  c #B89D76",
"A  c #B39E7A",
"S  c #B99F78",
"D  c #BDA47D",
"F  c #C0A77F",
"G  c #B8A785",
"H  c #BBAA88",
"J  c #C0A780",
"K  c #C4AB84",
"L  c #C8AF87",
"P  c #C7AF88",
"I  c #C8AF88",
"U  c #C8B087",
"Y  c #CBB48B",
"T  c #CEB88F",
"R  c #CBB992",
"E  c #D3BD93",
"W  c #D6C097",
"Q  c #D7C198",
"!  c #D8C39A",
"~  c #D8C399",
"^  c #D9C499",
"/  c #D9C49A",
"(  c #DAC49A",
")  c #DAC59B",
"_  c #DBC59B",
"`  c #DCC69B",
"'  c #D8C59C",
"]  c #DAC69C",
"[  c #DCC69C",
"{  c #DCC79C",
"}  c #DDC79C",
"|  c #DDC79D",
" . c #D9C49A",
".. c #DCC89D",
"X. c #DEC89D",
"o. c #DDC99F",
"O. c #DCC99E",
"+. c #DEC99E",
"@. c #DDCA9F",
"#. c #DECA9F",
"$. c #DFCA9F",
"%. c #DDCAA0",
"&. c #DECAA0",
"*. c #DECBA0",
"=. c #DFCBA0",
"-. c #DECBA1",
";. c #DFCBA1",
":. c #DFCCA1",
">. c #DFCCA2",
",. c #DFCBA1",
"<. c #E0CBA0",
"1. c #E0CCA0",
"2. c #E1CCA1",
"3. c #E1CDA1",
"4. c #E0CCA2",
"5. c #E0CDA2",
"6. c #E0CDA3",
"7. c #E1CDA3",
"8. c #E1CEA3",
"9. c #E2CFA4",
"0. c #E3CFA4",
"q. c #E4CFA4",
"w. c #E1CEA3",
"e. c #E3D0A4",
"r. c #E3D0A5",
"t. c #E3D1A5",
"y. c #E4D0A4",
"u. c #E4D0A5",
"i. c #E5D1A5",
"p. c #E4D1A6",
"a. c #E5D1A6",
"s. c #E4D2A6",
"d. c #E5D2A6",
"f. c #E6D3A7",
"g. c #E7D3A7",
"h. c #E4D1A6",
"j. c #E6D4A8",
"k. c #E7D4A8",
"l. c #E6D4A8",
"z. c #E8D4A8",
"x. c #E8D5A8",
"c. c #E8D5A9",
"v. c #E9D5A9",
"b. c #E9D6AA",
"n. c #EAD7AA",
"m. c #ECD9AC",
"M. c #EDDAAC",
"N. c None",
"B. c black",
/* pixels */
"N.N.N.N.N.N.N.N.                                                                                                N.N.N.N.N.N.N.N.",
"N.N.N.N.N.N.N.N.o o o o o o o o o o o o o o o o o o o o o o o o o o o o o o o o o o o o o o o o o o o o o o o o N.N.N.N.N.N.N.N.",
"N.N.N.N.N.N.N.N.% & & & & & & & & & & & & & & & & & & & & & & & & & & & & & & & & & & & & & & & & & & & & & & % N.N.N.N.N.N.N.N.",
"N.N.N.N.N.N.N.: 3 9 0 0 0 0 0 0 0 0 0 0 0 0 0 0 0 0 0 0 0 0 0 0 0 0 0 0 0 0 0 0 0 0 0 0 0 0 0 0 0 0 0 0 0 0 9 3 : N.N.N.N.N.N.N.",
"N.N.N.N.N.. $ < y j z N N N N N N N N N N N N N N N N N N N N N N N N N N N N N N N N N N N N N N N N N N z j y < $ . N.N.N.N.N.",
"N.N.N.N.. O & 0 j G R R R R R R R R R R R R R R R R R R R R R R R R R R R R R R R R R R R R R R R R R R R R G j 0 & O . N.N.N.N.",
"N.N.N.N.$ & < y B R 8.i.i.9.8.8.%.%.%.%.>.8.8.8.8.8.8.8.8.8.8.8.%...........................%.%.8.8.9.i.i.8.R B y < & $ N.N.N.N.",
"N.N.N.: < 0 y l H ' b.m.m.b.k.i.8.....8.q.i.b.b.b.b.b.b.b.b.i.i.8...[ [ [ [ ` ` [ [ [ [ [ [ ..8.i.k.b.m.m.b.' H l y 0 < : N.N.N.",
"  o % 3 y j B H R %.i.b.b.b.i.<./ E E / ..i.i.k.k.i.i.k.k.i.i.%.! E E E E E E E E E E E E E E / 8.i.b.b.b.i.%.R H B j y 3 % o   ",
"  o & 9 j G R ' %.8.r.i.i.9.%.! E T T E ! %.r.i.r.r.r.r.i.r.%./ E T U L L Y I Y Y L L L L Y T E / %.9.i.i.r.8.%.' R G j 9 & o   ",
"  o & 0 z R 8.b.i.r.9.8.8.%.' E T L P T W ..9.r.r.9.9.r.r.9.%.Q T P K K K K K K K K K K K K L T E ' %.8.8.9.r.i.b.8.R z 0 & o   ",
"  o & 0 N R i.m.b.i.8.%...! E T Y L L T W ..9.r.r.9.9.r.r.9...Q T L K G J K K K K K K J J K K Y T E ! ..%.8.i.b.m.i.R N 0 & o   ",
"  o & 0 N R i.m.b.i.8...Q E T Y L K L T W ..9.r.r.9.9.r.r.9...Q T L K J J K K J J K K K J K K L Y T E Q ' >.i.b.m.i.R N 0 & o   ",
"  o & 0 N R 9.b.b.9.%.! E Y L K K K L T Q %.9.r.r.9.9.r.r.9.%.Q T L K K K K K K K K K K K K K K L L Y E Q %.9.b.b.9.R N 0 & o   ",
"  o & 0 N R 8.k.i.%.' E T L K K J K L T Q %.9.r.r.9.9.r.r.9.%.Q T L K K L L L L L L L L L K K K K K L T E ' %.i.k.8.R N 0 & o   ",
"  o & 0 N R 8.i.8./ E T Y K K J J K L T Q %.r.i.i.r.r.i.i.r.%.Q T P L L Y T T T T T T Y L L K K K K L Y T E ! 8.i.8.R N 0 & o   ",
"  o & 0 N R %.8./ E T Y L K K J J K P R Q %.r.i.i.r.r.i.i.r.%.Q T P L Y T E Q ! ! Q E R Y L K K J K K L Y T E / 8.%.R N 0 & o   ",
"  o & 0 N R %...E T L L K K K K K K L T Q ..9.r.r.9.9.r.r.9...W T P L T E ' %.>.>.%.' E T L K K K K K K L L T E ..%.R N 0 & o   ",
"  o & 0 N R ..[ E I K K L L L L K K L T E ' ..%.%.%.%.%.%...' E T L P T W ..9.i.i.9.%.Q T L K K K K K K K K L E [ ..R N 0 & o   ",
"  o & 0 N R ..[ E L K L Y T T Y L L L Y R E Q Q Q Q Q Q Q Q E T Y L I T Q %.i.k.k.i.>.! R P K K K K K K K K L E [ ..R N 0 & o   ",
"  o & 0 N R ..` E L L Y E E E E Y L L L Y T T T T T T T R T T Y L L P T ! >.i.k.k.i.>.! R P K K K K K K K K L E [ ..R N 0 & o   ",
"  o & 0 N R ..[ E I L T E / / E T L K K K L L P P L L P P L L L K K L T Q %.9.i.i.9.%.Q T L K K K K K K K K Y E [ ..R N 0 & o   ",
"  o & 0 N R ../ E Y L T E / / E T L K K K K K K K K K K K K K K K K L T E ' %.%.>.%.' E T L K K K K K K K K Y E [ ..R N 0 & o   ",
"  o & 0 N R ../ E U L Y R E E E T L K K K K K K K K K K K K K K K K L Y R E Q Q ! Q E R Y L K K K K K J K K Y E [ ..R N 0 & o   ",
"  o & 0 N R ..[ E L L L Y T T Y Y L L K K K K K K K K K K K K K K K K L Y T T T R T T Y L K K K K K K J J K P E [ ..R N 0 & o   ",
"  o & 0 N R ..[ E L K K L L L L L K K K K K K K K K K K K K K K K K K K L L L P P L L L K K K K K K K K K K Y E [ ..R N 0 & o   ",
"  o & 0 N R ..[ E L K K K K K K D D D D D D D D K K K K K K K K K K K K K K K K K K K K K K K L L L L K K K Y E [ ..R N 0 & o   ",
"  o * 0 N R %...E L K K K K J D S C C V V C C D D K K K K K K K K K K K K K K K K K K K K K L Y Y T T Y L L Y E ..%.R N 0 * o   ",
"  o * 0 N R >...E Y K K K K D S V m v v v v m V D D K K K K K K K K K K K K K K K K K K K K L Y E E E E Y L I E ..>.R N 0 * o   ",
"  o & 0 N R %.[ E Y K K K K D C m c f f f f c m C D K K K K K K K K K K K K K K K K K K K K L T E / / E T L L E ` ..R N 0 & o   ",
". o & 6 k P W W T L K K K K D C v f p i i p f v V D K L L L L L L L L L L K K K K K K K K K L T E / / E T L L T E E P k 6 & o . ",
". o % 4 d A L Y U L K K L K D V v f i u u i f c V D L Y Y T T T T T T Y L L K K K K K K K K L Y E E E E Y L K L Y L A d 4 % o . ",
". o $ < r b C D F K K L L K D V v f i u u i f c V D L T E E Q ! ! Q E R Y L K K K K K K K K K Y Y T T T Y L K D D C b r < $ o . ",
". o @ > 7 a v V D D K L L K D C v f p i i p f v V D L T E ' %.>.>.%.' E T L K K K K K K K K K L L L L L L K D S V v a 7 > @ o . ",
". o @ = 5 t f m C D K L L K D C m c f f f f x m C D L E ! %.9.i.i.9.%.Q T L K K K K K K K K K K K K K K K K D C m f t 5 = @ o . ",
"X o @ = 5 w f v C D K L L K G S V m v v v v m V S F P E / 8.i.k.k.i.>.! R P K K K K K K K K K K K K K K K K D C n f w 5 = @ o X ",
"X o @ = 5 e f v C D K L L K K D D C C V V C C S D K P T ! <.i.k.k.i.>.! R P K K K K K K K K K K K K K K L K D C m f e 5 = @ o X ",
". o @ = 5 t f m C D K L K K K K D D D D D D D D G K L T W ..9.i.i.9.%.Q T L K K K K K K K K K K K K K K K K D C m f t 5 = @ o . ",
". o @ = 5 t f m C D K K J D D D J K K K K K K K K K L T E ' %.>.>.%.' E T L K K K K K K K K K K K K K K J D S V v f t 5 = @ o . ",
". o @ = 5 t f m C D J D S C C S D K K L L L K K K K L Y R E Q ! ! Q E E Y L K K K K K K K K K K K K K D D C M m c f t 5 - @ o . ",
". o @ = 5 t f m C D D D V m m V S J K K L K K K K K L L Y T T R R T T Y Y L L K K L K K K K K K K K D S V m c x g s t 5 ; @ o . ",
". o @ = 5 t f m Z D D C m c c m C D K K K K K K K K K L L L L P P L L L L K K K K K K K K K K K K K D C m c f f f p t 5 ; @ o . ",
". o @ = 5 t f m Z D D C m c c m C D K L K K K K K K K K K K K K K K K K D D D D D D D D K K K K L K D C m c f f f p t 5 ; @ o . ",
". o @ = 5 t f m C D D D V m m V S J K L L K K K K K K K K K K K K K J D S C C V V C C D D K K L L K J D V m c x g s t 5 ; @ o . ",
". o @ = 5 t f m C D J D S C C S D K K L L L K K K K K K K K K K K K D S V m v v v v m V D D K L L K K D D C M m c f t 5 - @ o . ",
". o @ = 5 t f m C D K K J D D D J K K K K K K K K K K K K K K K K K D C m c f f f f c m C D K K K K K K J D S V v f t 5 = @ o . ",
". o @ = 5 t f m C D K L K K K K D D D D D D D D K K K K K K K K L K D C v f p i i p f v C D K K J D D J K K D C m f t 5 = @ o . ",
". o @ = 5 t f m C D K L L K K D D C C V V C C D D K K K K K K K L K D V v f i u u i f v V D G D S C C D D K D Z m f t 5 = @ o . ",
". o @ = 5 t f m C D K L L K J D V m v v v v m V D D K K K K K K L K D V c f i u u i f v C D D D V m m V D J D Z m f t 5 = @ o . ",
". o @ = 5 t f m C D K L L K D C m c f f f f c m C D K K K K K K L K D V v f p i i p f n C D D C m c c m C D D Z m f t 5 = @ o . ",
". o @ = 5 t f m C D K L L K D C v f p i i p f v C D K L K K K K L K D C m c f f f f c m C D D C m c c m C D D Z m f t 5 = @ o . ",
". o @ - 5 t g m Z D K L L K D C v f p u u p f v C D K L L K K L L K J D V m n v v n m C D J J D V m m V D J D Z m g t 5 - @ o . ",
". o @ - 5 t g m Z F L L L L D C v f p u u p f v C D K L L L L L L K K D D C C C C C C D D K K D D C C D D K D Z m g t 5 - @ o . ",
". o @ = 5 t f m C D K L L K D V v f p i i p f v V D K K K K K K K K K K D D D D D D D D K K K K D D D K K K D C m f t 5 = @ o . ",
". o @ = 1 q i x m C D J J D S M v f p i i p f v M S D D D D D D D D D D D D D D D D D D D D D D D D D D D D C m x i q 1 = @ o . ",
". o @ = > 2 8 t h m C Z Z C V m c f s p p s f c m V C C C C C C C C C C C Z Z Z Z Z Z C C C C C C Z Z Z Z C m h t 8 2 > = @ o . ",
"N.N.N.# & = , 7 t x m m m m v c g f f s s f f g c v m m m m m m m m m m m m m m m m m m m m m m m m m m m m x t 7 , = & # N.N.N.",
"N.N.N.N.+ @ & , 8 i f g g f f f s s p p p p s s f f f f f f f f f f f f f f f f f f f f f f f f f f f g g f i 8 , & @ + N.N.N.N.",
"N.N.N.N.X o @ = 2 q t t t t t t t t t t t t t t t t t t t t t t t t t t t t t t t t t t t t t t t t t t t t q 2 = @ o X N.N.N.N.",
"N.N.N.N.N.X + & > 1 5 5 5 5 5 5 5 5 5 5 5 5 5 5 5 5 5 5 5 5 5 5 5 5 5 5 5 5 5 5 5 5 5 5 5 5 5 5 5 5 5 5 5 5 1 > & + X N.N.N.N.N.",
"N.N.N.N.N.N.N.# = = = - - = = - ; ; ; ; ; ; ; ; - = = = = = = = = = = = = = = = = = = = = = = = = = = - - = = = # N.N.N.N.N.N.N.",
"N.N.N.N.N.N.N.N.@ @ @ @ @ @ @ @ @ @ @ @ @ @ @ @ @ @ @ @ @ @ @ @ @ @ @ @ @ @ @ @ @ @ @ @ @ @ @ @ @ @ @ @ @ @ @ @ N.N.N.N.N.N.N.N.",
"N.N.N.N.N.N.N.N.o o o o o o o o o o o o o o o o o o o o o o o o o o o o o o o o o o o o o o o o o o o o o o o o N.N.N.N.N.N.N.N.",
"N.N.N.N.N.N.N.N.. . . . . . . . . . . . . . . . . . . . . . . . . . . . . . . . . . . . . . . . . . . . . . . . N.N.N.N.N.N.N.N."
};
