/* XPM */
static const char *wall[] = {
/* columns rows colors chars-per-pixel */
"64 64 174 2 ",
"   c #151214",
".  c #1A1516",
"X  c #1E1917",
"o  c #1F1A18",
"O  c #231C19",
"+  c #2B1F1C",
"@  c #331E1E",
"#  c #2C211C",
"$  c #33231E",
"%  c #38221F",
"&  c #33281F",
"*  c #3A2320",
"=  c #362A20",
"-  c #3B2D21",
";  c #452523",
":  c #492624",
">  c #442B23",
",  c #4B2925",
"<  c #522C27",
"1  c #562D28",
"2  c #5C2E2A",
"3  c #463626",
"4  c #4A3526",
"5  c #4A3927",
"6  c #4D3B28",
"7  c #523327",
"8  c #593227",
"9  c #553229",
"0  c #5E302A",
"q  c #523D29",
"w  c #612F2C",
"e  c #64312C",
"r  c #6B362E",
"t  c #6D3A2E",
"y  c #723A2F",
"u  c #753D30",
"i  c #7A3F30",
"p  c #56422B",
"a  c #5C452D",
"s  c #5F482E",
"d  c #62452F",
"f  c #624A2F",
"g  c #7B432F",
"h  c #694430",
"j  c #644C30",
"k  c #694E31",
"l  c #764132",
"z  c #7C4231",
"x  c #734C32",
"c  c #7B4A32",
"v  c #6A5132",
"b  c #745534",
"n  c #7B5637",
"m  c #755836",
"M  c #7C5738",
"N  c #7F5939",
"B  c #834631",
"V  c #854832",
"C  c #8A4B33",
"Z  c #8E5136",
"A  c #855439",
"S  c #945334",
"D  c #9A5635",
"F  c #9D5936",
"G  c #91563A",
"H  c #925A3D",
"J  c #9B5D3A",
"K  c #A25D36",
"L  c #85633B",
"P  c #8B653C",
"I  c #8C683E",
"U  c #90673D",
"Y  c #9B633B",
"T  c #93693E",
"R  c #9C693E",
"E  c #A76037",
"W  c #AA6237",
"Q  c #A5633C",
"!  c #AC6438",
"~  c #AF6A3C",
"^  c #B16739",
"/  c #B56B3A",
"(  c #B96E3B",
")  c #BB723E",
"_  c #C0763F",
"`  c #946E41",
"'  c #996F41",
"]  c #967042",
"[  c #9B7242",
"{  c #A16E44",
"}  c #AC6E43",
"|  c #A37543",
" . c #AC7644",
".. c #AD7945",
"X. c #AA7D48",
"o. c #B57443",
"O. c #BC7642",
"+. c #B47B45",
"@. c #BE7B44",
"#. c #B27D49",
"$. c #C07741",
"%. c #C27D44",
"&. c #BD834A",
"*. c #BF8B4E",
"=. c #C68146",
"-. c #CA8247",
";. c #C4854A",
":. c #CA8649",
">. c #C38A4E",
",. c #CC8C4D",
"<. c #D18E4E",
"1. c #D28E4F",
"2. c #D18E4E",
"3. c #D2904F",
"4. c #D4914F",
"5. c #D3904F",
"6. c #C38F51",
"7. c #C28E50",
"8. c #C28E50",
"9. c #C49051",
"0. c #C59051",
"q. c #CE9151",
"w. c #D39251",
"e. c #D59251",
"r. c #D29653",
"t. c #D69653",
"y. c #D79753",
"u. c #D59653",
"i. c #D29754",
"p. c #D39754",
"a. c #D49754",
"s. c #D39552",
"d. c #D99551",
"f. c #D49854",
"g. c #D49955",
"h. c #D59955",
"j. c #D49855",
"k. c #D69955",
"l. c #D59B56",
"z. c #D79D57",
"x. c #D69C57",
"c. c #D69A55",
"v. c #DA9954",
"b. c #D89A55",
"n. c #DA9A55",
"m. c #D99D57",
"M. c #DA9D57",
"N. c #DA9C56",
"B. c #D99E57",
"V. c #DD9E57",
"C. c #DD9D57",
"Z. c #D99B56",
"A. c #D79D58",
"S. c #D79E58",
"D. c #D79E58",
"F. c #D89E58",
"G. c #D99F58",
"H. c #D99F59",
"J. c #D99E58",
"K. c #DA9E58",
"L. c #DE9F58",
"P. c #D99E58",
"I. c #D9A059",
"U. c #DAA15A",
"Y. c #DBA15A",
"T. c #DBA35B",
"R. c #DDA059",
"E. c #DDA15A",
"W. c #DEA35A",
"Q. c #DEA35B",
"!. c #DFA45B",
"~. c #DCA25A",
"^. c None",
"/. c black",
/* pixels */
"^.^.^.^.^.^.^.^.. . . . . . . . . . . . . . . . . . . X o O O O O O O O O O O o X . . . . . . . . . . . . . . . ^.^.^.^.^.^.^.^.",
"^.^.^.^.^.^.^.^.O O O O O O O O O O O O O O O O O O O O O O O O O O O O O O O O O O O O O O O O O O O O O O O O ^.^.^.^.^.^.^.^.",
"^.^.^.^.^.^.^.^.- - - - - - - - - - - - - - - - - - = & # O O O O O O O O O O # & = - - - - - - - - - - - - - - ^.^.^.^.^.^.^.^.",
"^.^.^.^.^.^.^.3 p f j j j j j j j f f f f f f j j j a 5 = # o X O O O O X o # = 5 a j j j f f f f f f j j j f p 3 ^.^.^.^.^.^.^.",
"^.^.^.^.^.. & q b P ` ] ] ` ` ` ` ` ` ` ` ` ` ` ] ` L k 3 # X . X O O X . X # 3 k L ` ] ` ` ` ` ` ` ` ` ` ` P b q & . ^.^.^.^.^.",
"^.^.^.^.. O - f P X.*.7.7.*.*.*.*.*.*.*.*.*.>.7.9.*.X.L a - O X o O O o X O - a L X.*.9.7.>.*.*.*.*.*.7.7.*.X.P f - O . ^.^.^.^.",
"^.^.^.^.& - q b ' *.r.n.l.i.i.l.l.z.A.A.A.A.z.K.M.i.*.[ m q - # O O O O # - q b [ *.i.M.K.z.A.A.A.A.z.M.M.i.*.' b q - & ^.^.^.^.",
"^.^.^.3 q f b P | ;.1.w.4.3.w.y.M.E.E.!.!.E.E.C.n.w.:...U m s 5 = # # = 3 a m I  .:.w.n.C.E.E.!.!.E.E.C.n.w.;. .P m f p 3 ^.^.^.",
". O - p b P ' | +.@.%.=.=.=.:.,.y.M.E.E.E.E.M.y.1.:.=.+...[ P v 5 & & 3 j L [  .+.%.:.1.y.M.E.E.E.E.M.y.1.:.%.+. .[ I m p - O . ",
". O - f P X.*.;.%.O.) ) ) ) @.-.,.l.K.U.U.K.l.,.=.@.O.%.;.*.X.L p - - p L X.*.;.%.O.@.=.,.l.K.U.U.K.l.,.=.@.O.@.;.&.X.P s - O . ",
". O - j ` *.i.w.:.@.) ( / ( ) %.,.a.K.U.U.K.i.,.%.) ) $.:.>.#.L p - - f ` *.r.1.%.) ) %.,.i.K.U.U.K.i.,.%.) ) $.:.>.#.P a - O . ",
". O - j ` 7.M.n.1.-.$.) ( ( ) %.,.l.K.U.U.K.l.,.%.) / o.O.+.{ n q = - j ] 9.n.4.=.) ) $.,.l.K.U.U.K.l.,.%.) / o.O.+.{ M q = O . ",
". O - j ` 7.K.L.n.,.:.%.) ( ) %.,.l.U.U.U.U.l.,.%.) ^ ! Q J A d > & - j ] 7.l.4.=.) ) %.,.l.U.U.U.U.l.,.%.) ^ ! Q J A h 4 & O X ",
". O - f ` *.z.E.K.l.q.:.@.) ) %.,.i.K.U.U.K.a.,.%.) ! K S c t < * # - j ] >.i.1.%.) ) %.,.i.K.U.U.K.a.,.%.) ! K S c t 9 - # O o ",
". O - f ` *.z.E.K.l.q.:.$.) ) $.:.w.a.l.l.i.w.,.%.) ! D V y 0 : @ # - j ] 7.i.1.=.) ) @.:.q.i.l.l.i.w.,.%.) ! D V y 0 , * + O o ",
". O - j ` *.l.M.l.q.,.=.O.) ) O.=.,.,.,.,.,.:.=.$.( ! D B r 2 ; @ + - j ] 7.l.w.=.) ( ) %.:.,.,.,.,.:.=.$.) ! D B r 2 : % + O o ",
". O - j ` *.l.l.1.:.%.O.) ( ) ) $.%.%.=.=.%.%.$.) ( ! D B t 2 ; @ + - j ] 9.n.w.=.) ( ( O.$.%.%.%.%.%.$.) ( ! D B t 2 : % + O o ",
". O - j ` *.i.w.:.@.) ( ( ( ( ( ( ) ) ) ) ) ) ) ) ( ! D V y 2 ; @ + - j ` *.r.1.=.) ( ( ( ) ) ) ) ) ) ) ( / ! D V y 0 , * + O o ",
". O - j ` *.i.3.=.) / ^ ! ! ! ! ! ! ! ! ^ / / ( ( / ! D V y 2 : @ + = a L X.*.:.%.O.) ( ( ( ( / ( / / / ^ ! K S B y 0 , * + O o ",
". O - j ` *.r.3.=.) ^ W K F D S S D D K W ^ / ( ( / ! D B t 2 : @ + & 5 k L [ ..+.%.%.$.) ( ( / ( / ^ ! K F S C z t 0 , * + O o ",
". O - j ` *.a.4.=.) ! K S C B B B B C S K ! / ( ( / ! D B t 2 : % + # & 3 a m U ..;.,.:.%.) ( ( ( / ^ K D C B z u r e , * + O o ",
". O - j ` *.a.4.=.) ! D C z y r r y z C F ! / ( ( / ! D V y 0 , * + O O # - q m [ *.q.,.%.) / / / / ! F C z y r r e 0 , * + O o ",
". O - j ` *.i.w.=.) ! D B y e e e e y V D ! / ( ( / ! F C z r 1 > % + O O O - a L X.&.&.o.~ ! ! ! ! K S B y e e e 0 1 : % + O O ",
". O - j ` *.i.w.=.) ! S B r e 2 2 e t B S ! / ( ( ( ^ E D C g t 9 > % + O O # 5 v L ` R Y J D D F D S C z r e 2 1 < , * $ + O O ",
". O - j ` *.i.w.=.) ! S B r e 2 2 e t B S ! / ( ( ( / ! E F Z z r 8 , % + O # = 5 a k x c B V C C V B z u r e 1 , ; % $ + O O O ",
". O - j ` *.i.w.=.) ! D B y e e e e y V D ! / ( ( / / / ^ ! K S z r 1 ; % + O # # = > 7 0 r y y y y y t r e 0 < ; % + O O O O O ",
". O - j ` *.i.w.=.) ! F C z y t t y z C F ! / / ^ ! ! ^ / / ! D V y 0 , * + O o O O + % , 1 0 0 0 0 0 0 0 2 1 , % + O O O O O O ",
". O - j ] 7.l.y.:.) ^ K D C V B B V C D E ^ ^ ! K F F E ^ / ^ K C u e , * + O X X X O + % ; ; : : : : : : : ; * $ O O O O O O O ",
". O - j ] 9.n.d.:.) / ! K K F D D F K ! ^ / ^ K S C C D ! ^ ^ K C u e , * + O X X o O O + @ @ @ @ @ @ @ @ % @ + + O O O O O O O ",
". O - j ` *.r.3.=.) / ^ ! ! ! ! ! ! ! ^ / / ! F C z z C F ! ! F C y 0 , * + O O O O O O + + # # # # # # # # + + O O O O O O O O ",
". O = a L X.&.&.o.~ ! W ! ! ! ! ! ! ! ! ! ! K S z y y B S K K S z r 1 ; % + O O O O O # & = - - - - - - - - = & # O O O O O O O ",
"X O & 5 v L T R Y F D D F F F F F F F F F D S V u r r i C S S B t 8 , * $ + O X X o # = 5 a j j j j j j j j a 5 = # o X O O O O ",
"o O # - 5 a k x c B V C C C C C C C C C C V B z y r r u z B z t 8 > % $ + O O X . X # 5 k L ` ] ] ] ] ] ] ` L k 5 # X . X O O O ",
"O O O # & = > 7 0 r y y y y y y y y y y y y y r r r r r t t r 8 > % + O O O O o X O - a L X.*.9.6.7.7.7.9.*.X.L a - O X o O O O ",
"O O O O O O + % , 1 0 0 0 0 0 0 0 0 0 0 0 0 0 2 2 2 0 0 e 0 1 , % + O O O O O # # - q m [ *.r.n.n.a.i.l.n.r.*.[ m q - # # O O O ",
"O O O O X X O + % ; ; : : : : : : : : : : : : : : : : , , , ; * $ O O X o O # - 5 a m I ..:.3.w.w.w.w.w.d.3.>...U m s 5 - # O o ",
"O O O O o o O O + @ @ @ @ @ @ @ @ @ @ @ @ @ @ @ @ % % % * * % $ + O O X X O & 6 v L [ ..+.%.=.=.=.=.=.-.-.=.=.+.#.| P v 6 & O X ",
"O O O O O O O O + + # # # # # # # # # # # # # # # # # # + + + + O O O X X O = a L X.*.:.%.O.) ) ) ) ) ) ) ) O.%.;.*.X.L a = O . ",
"O O O O O O O # & = - - - - - - - - - - - - - - - - = & # O O O O O O X X O - j ] *.r.3.=.) / ^ ! ! ! ! W ! ^ O.;.>.#.P a - O . ",
"O O O O X o # = 5 a j j j j f f f f f j j j j j j j a 5 = O X X X O O X X O - k [ 9.n.w.=.) ^ W K D D S S D F Q  .o.{ N q = O . ",
"O O O X . X # 5 k L ` ] ] ` ` ` ` ` ` ` ` ` ] ] ] ` L k 3 # X . X O O X X O - k ] 6.l.w.=.) ! K S C B B B B V Z G H A h 4 & O X ",
"O O O o X O - a L X.*.9.7.7.*.*.*.*.*.*.*.*.7.7.9.*.X.L a - O X o O O X X O - j ] 7.i.w.=.) ! D C z y t t y y u z l t 9 > # O o ",
"O O O # # - q b [ *.i.M.K.z.A.A.A.A.z.l.l.i.i.l.n.r.*.[ m q - # # O O X . O - j ] *.i.w.=.) ! D B y e e e e e r r e 0 , * + O o ",
"o O # = 3 a m I  .:.w.n.C.E.E.!.!.E.E.M.y.w.3.w.w.3.>...U m f 5 - # O . . O = j ] 7.l.w.-.) ! S B r e 2 w w e e e w 2 , * + O o ",
"X O & 5 k L [  .+.%.:.1.y.M.E.E.E.E.M.y.,.:.=.=.=.=.=.@.#.| P v 6 & O .   X = j ] 7.l.w.:.) ! S B r e 2 w w e e e e 2 , * + O o ",
". O = a L X.*.;.%.O.@.=.,.l.K.U.U.K.l.,.-.@.) ) ) ) O.%.;.*.X.L a = O . . O - j ] *.i.4.=.) ! D B y e e e e e r r e 2 , * + O o ",
". O - j ` *.r.1.%.) ) %.,.i.K.U.U.K.a.,.%.) / ^ ! ! ^ O.;.>.#.I a - O O # = q m [ *.q.1.%.) ! F C z y y y y y y r r 0 , * + O o ",
". O - j ] 9.n.4.=.) ) $.,.l.K.U.U.K.l.,.%.) ^ K F D F Q } o.{ N q = # & 3 a b I  .&.:.=.$.( ! K S C V B V V B z u r 0 , * + O o ",
". O - j ] 7.l.4.=.) ) %.,.l.U.U.U.U.l.,.%.) ! K S V V C G H A h 4 & & 3 j L ]  .+.@.$.$.) ( ^ W K F D F F F S C z t 0 , * + O o ",
". O - j ` *.i.1.%.) ) %.,.i.K.U.U.K.a.,.%.) ! D C z y u u l t 9 * # = a L X.*.;.%.O.) ( ( ( / ^ ! ! ! ! ! ! K S B y 0 , * + O o ",
". O - j ` *.i.1.=.) ) $.:.w.a.l.l.a.w.,.%.) ! F C z y r r r 0 : % # - j ` *.i.3.=.) ( ( ( ) ) ) ( ( / / ^ ! K S B y 0 , * + O o ",
". O - j ` 7.l.w.=.) ) O.=.,.,.,.,.,.,.=.$.) ^ K S C B i y r 2 ; @ + - k [ q.C.d.-.) ( ) @.%.%.$._ ) ( ^ ! K S C z t 0 , * + O o ",
". O - j ] 7.n.w.-.) ) ) $.%.=.=.=.=.%.$.) ( / ! E F S C i r 2 ; @ + - k [ q.C.d.-.) ) $.=.,.,.:.%.) / W D C B z u r 0 , * + O o ",
". O - j ` *.r.1.=.) ( / ( ) ) ) ) ) ) ( ( ( / ^ ^ ! K S B t 2 ; @ + - j ] *.r.1.%.) ) $.:.q.q.,.%.) ! F C z y r r r 0 , * + O o ",
". O - f P X.&.&.o.~ ! ! ! ! ! ! ! ! ! ! ! ! ! ! ! ! K S z r 1 ; @ + = a L X.&.&.o.~ ^ o.&.>.>.;.O.~ K S B y e e e 0 1 , * + O o ",
". O - p m P U R Y F D D D D D D D D D D D D F F F F S B t 8 , % + + & 5 v L T R Y J J Q }  . .} Q J S V i r e 2 1 < , ; % + O o ",
"^.^.^.5 p d k x c B V V B B B B B B B B V V V C C C z t 8 > % + + O # - 5 a k x c B C Z G H H G Z C B z y r e 1 , ; * % $ ^.^.^.",
"^.^.^.^.= - > 4 0 r y y y y y y y y y y y y y y y y r 8 > % + O O O O # & = > 7 0 r y u l l l u u y y t r e 0 < ; % + + ^.^.^.^.",
"^.^.^.^.O O # * , 1 0 e 0 0 0 0 0 0 0 0 0 0 0 e e 0 1 , % + O O O O O O O O + * , 1 0 e e 0 0 0 0 0 0 0 0 0 1 , * + O O ^.^.^.^.",
"^.^.^.^.^.. O @ * : , , , , , , , , , , , , , , , , ; * $ O O O O O O O X X O + * ; , , , : : : , , , , , , , ; % + o ^.^.^.^.^.",
"^.^.^.^.^.^.^.+ $ % * * * * * * * * * * * * * * * * % $ + O O O O O O O o o O + # % * * % % % % % * * * * * * % # ^.^.^.^.^.^.^.",
"^.^.^.^.^.^.^.^.+ + + + + + + + + + + + + + + + + + + + O O O O O O O O O O O O + + + + + + + + + + + + + + + + ^.^.^.^.^.^.^.^.",
"^.^.^.^.^.^.^.^.O O O O O O O O O O O O O O O O O O O O O O O O O O O O O O O O O O O O O O O O O O O O O O O O ^.^.^.^.^.^.^.^.",
"^.^.^.^.^.^.^.^.o o o o o o o o o o o o o o o o o o O O O O O O O O O O O O O O O O o o o o o o o o o o o o o o ^.^.^.^.^.^.^.^."
};
